<svg preserveAspectRatio="none" width="100%" height="100%" overflow="visible" style="display: block;" viewBox="0 0 237 252" fill="none" xmlns="http://www.w3.org/2000/svg">
<g id="Button up">
<g id="Star 1" filter="url(#filter0_dd_0_1038)">
<path d="M118.521 62.6476C118.744 61.589 120.256 61.589 120.479 62.6476L125.325 85.6654C125.512 86.5558 126.695 86.7534 127.162 85.9723L139.432 65.4402C139.988 64.5088 141.422 65.0063 141.282 66.0822L138.271 89.217C138.152 90.1282 139.222 90.7035 139.917 90.1022L158.333 74.1639C159.16 73.4485 160.37 74.3882 159.882 75.3663L149.431 96.32C149.015 97.1547 149.867 98.0544 150.723 97.6843L173.357 87.8985C174.369 87.461 175.24 88.7428 174.461 89.523L157.692 106.319C157.024 106.988 157.572 108.125 158.512 108.019L183.076 105.248C184.179 105.123 184.634 106.619 183.649 107.129L162.199 118.241C161.352 118.679 161.541 119.941 162.479 120.112L186.61 124.516C187.704 124.716 187.704 126.284 186.61 126.484L162.479 130.888C161.541 131.059 161.352 132.321 162.199 132.759L183.649 143.871C184.634 144.381 184.179 145.877 183.076 145.752L158.512 142.981C157.572 142.875 157.024 144.012 157.692 144.681L174.461 161.477C175.24 162.257 174.369 163.539 173.357 163.101L150.723 153.316C149.867 152.946 149.015 153.845 149.431 154.68L159.882 175.634C160.37 176.612 159.16 177.551 158.333 176.836L139.917 160.898C139.222 160.296 138.152 160.872 138.271 161.783L141.282 184.918C141.422 185.994 139.988 186.491 139.432 185.56L127.162 165.028C126.695 164.247 125.512 164.444 125.325 165.335L120.479 188.352C120.256 189.411 118.744 189.411 118.521 188.352L113.675 165.335C113.488 164.444 112.305 164.247 111.838 165.028L99.5682 185.56C99.0116 186.491 97.5782 185.994 97.7182 184.918L100.729 161.783C100.848 160.872 99.778 160.296 99.0832 160.898L80.6669 176.836C79.8403 177.551 78.6297 176.612 79.1176 175.634L89.5688 154.68C89.9851 153.845 89.1332 152.946 88.2771 153.316L65.6434 163.101C64.6315 163.539 63.76 162.257 64.5389 161.477L81.3081 144.681C81.9763 144.012 81.428 142.875 80.4883 142.981L55.9235 145.752C54.8211 145.877 54.3663 144.381 55.3515 143.871L76.8011 132.759C77.6477 132.321 77.4586 131.059 76.5206 130.888L52.3902 126.484C51.2962 126.284 51.2962 124.716 52.3902 124.516L76.5206 120.112C77.4586 119.941 77.6477 118.679 76.8011 118.241L55.3515 107.129C54.3664 106.619 54.8211 105.123 55.9235 105.248L80.4883 108.019C81.428 108.125 81.9763 106.988 81.3081 106.319L64.5389 89.523C63.76 88.7428 64.6315 87.461 65.6434 87.8985L88.2771 97.6843C89.1332 98.0544 89.9851 97.1547 89.5688 96.32L79.1176 75.3663C78.6297 74.3882 79.8403 73.4485 80.6669 74.1639L99.0832 90.1022C99.778 90.7035 100.848 90.1282 100.729 89.217L97.7182 66.0822C97.5782 65.0063 99.0116 64.5088 99.5682 65.4402L111.838 85.9723C112.305 86.7534 113.488 86.5558 113.675 85.6654L118.521 62.6476Z" fill="var(--fill-0, #FFCF03)"/>
</g>
<g id="arrow_outward">
<mask id="mask0_0_1038" style="mask-type:alpha" maskUnits="userSpaceOnUse" x="97" y="104" width="43" height="43">
<rect id="Bounding box" x="97" y="147" width="43" height="43" transform="rotate(-90 97 147)" fill="var(--fill-0, #D9D9D9)"/>
</mask>
<g mask="url(#mask0_0_1038)">
<path id="arrow_outward_2" d="M119.378 141.092L115.831 141.092L115.831 116.767L104.935 127.663L102.401 125.129L117.604 109.926L132.807 125.129L130.273 127.663L119.378 116.767L119.378 141.092Z" fill="var(--fill-0, #FF2E2E)"/>
</g>
</g>
</g>
<defs>
<filter id="filter0_dd_0_1038" x="33.5697" y="51.8537" width="171.861" height="163.293" filterUnits="userSpaceOnUse" color-interpolation-filters="sRGB">
<feFlood flood-opacity="0" result="BackgroundImageFix"/>
<feColorMatrix in="SourceAlpha" type="matrix" values="0 0 0 0 0 0 0 0 0 0 0 0 0 0 0 0 0 0 127 0" result="hardAlpha"/>
<feOffset dy="4"/>
<feGaussianBlur stdDeviation="2"/>
<feColorMatrix type="matrix" values="0 0 0 0 0 0 0 0 0 0 0 0 0 0 0 0 0 0 0.3 0"/>
<feBlend mode="normal" in2="BackgroundImageFix" result="effect1_dropShadow_0_1038"/>
<feColorMatrix in="SourceAlpha" type="matrix" values="0 0 0 0 0 0 0 0 0 0 0 0 0 0 0 0 0 0 127 0" result="hardAlpha"/>
<feMorphology radius="6" operator="dilate" in="SourceAlpha" result="effect2_dropShadow_0_1038"/>
<feOffset dy="8"/>
<feGaussianBlur stdDeviation="6"/>
<feColorMatrix type="matrix" values="0 0 0 0 0 0 0 0 0 0 0 0 0 0 0 0 0 0 0.15 0"/>
<feBlend mode="normal" in2="effect1_dropShadow_0_1038" result="effect2_dropShadow_0_1038"/>
<feBlend mode="normal" in="SourceGraphic" in2="effect2_dropShadow_0_1038" result="shape"/>
</filter>
</defs>
</svg>
