<svg preserveAspectRatio="none" width="100%" height="100%" overflow="visible" style="display: block;" viewBox="0 0 926.193 429" fill="none" xmlns="http://www.w3.org/2000/svg">
<g id="creemos juntos">
<path id="Vector" opacity="0.3" d="M81.8508 394.538C133.509 371.763 157.068 311.733 134.468 260.472C111.867 209.211 51.6577 186.114 -2.74741e-06 208.889C-2.74741e-06 208.889 77.6457 392.925 81.8508 394.538Z" fill="var(--fill-0, #5A00CF)"/>
<path id="brand12" opacity="0.4" d="M716.863 21.4976L736.873 74.1079L809.043 46.269L785.884 93.2273L882.174 85.9859L819.852 119.173L923.613 133.781L832.902 147.458L926.193 181.39L822.779 173.192L889.469 220.581L791.233 191.926L819.79 244.577L743.718 200.42L729.205 249.23L688.451 197.205L633.377 233.734L634.987 182.838L548.875 200.77L592.57 159.802L490.31 156.036L568.536 132.081L467.809 107.268L567.039 104.467L485.262 62.8989L588.339 81.7368L539.652 30.5995L628.753 67.8189L621.574 15.955L681.292 65.1204L716.863 21.4976Z" fill="var(--fill-0, #5B0DC2)"/>
<g id="stroke">
<path id="Vector_2" d="M130.157 137.412C126.486 116.739 131.486 94.7559 141.821 76.2452C146.821 67.2379 153.823 58.4091 161.66 51.4056C177.828 37.5771 204.312 34.5813 214.826 57.5758C219.488 67.7339 218.833 79.9156 213.655 90.0737C211.315 94.2401 204.986 90.411 207.149 86.2446C212.148 76.9198 212.148 65.0753 205.819 56.7425C192.151 38.9064 171.658 49.9176 158.664 65.0753C152.494 72.0788 147.674 80.4116 143.666 88.9031C136.505 105.231 133.827 124.893 138.667 142.074C141.008 149.911 144.837 157.073 151.006 162.569C158.009 168.561 166.837 171.061 175.665 170.406C194.333 169.414 208.993 154.911 215.5 138.245C216.175 136.241 218 134.912 220.004 135.587C222.007 136.083 223.336 138.245 222.503 140.09C221.67 142.431 220.678 144.931 219.508 147.253C210.005 166.259 190.187 180.246 168.345 177.588C158.009 176.259 148.348 171.418 141.683 163.263C135.691 155.923 131.684 146.757 130.176 137.432L130.157 137.412Z" fill="var(--fill-0, white)" stroke="var(--stroke-0, #5A00CF)" stroke-width="41" stroke-linecap="round" stroke-linejoin="bevel"/>
<path id="Vector_3" d="M295.627 122.095C289.299 125.587 281.304 128.087 274.46 124.932C271.464 123.603 269.123 121.103 267.12 118.266C265.453 115.925 264.283 112.929 262.279 110.925C256.943 105.588 254.106 113.088 251.785 117.929C248.948 124.754 247.123 131.757 245.278 138.761C243.453 146.419 241.608 154.097 239.783 161.418C238.95 165.743 232.78 164.751 232.621 160.744C231.629 135.745 233.792 110.588 238.612 86.2445C238.95 84.2407 241.271 83.0701 242.937 83.5859C245.099 84.2605 245.933 86.2445 245.437 88.2483C243.274 101.244 241.429 114.576 240.775 127.908C242.282 122.076 244.445 116.58 246.944 111.243C248.452 108.406 250.118 104.914 253.273 102.91C256.268 100.748 260.276 100.906 263.767 102.751C266.604 104.259 269.104 107.255 270.77 110.251C272.436 112.592 273.607 115.409 275.928 117.254C280.431 120.925 287.434 118.246 292.096 115.747C296.421 113.584 299.754 119.913 295.588 122.076L295.627 122.095Z" fill="var(--fill-0, white)" stroke="var(--stroke-0, #5A00CF)" stroke-width="41" stroke-linecap="round" stroke-linejoin="bevel"/>
<path id="Vector_4" d="M352.443 124.754C342.941 137.094 309.95 153.085 295.627 128.92C294.298 126.579 293.286 124.258 292.79 121.579C290.786 111.917 295.627 101.422 304.117 96.2436C308.621 93.5851 314.79 92.5732 319.79 94.4183C325.463 96.2436 329.451 102.255 327.784 108.247C325.959 113.921 320.623 117.572 315.445 119.417C310.605 121.083 305.109 121.579 300.11 120.409C300.447 122.413 301.281 124.079 302.451 125.904C313.957 144.395 339.449 131.579 347.94 119.238C350.102 116.242 356.272 119.913 352.443 124.734V124.754ZM302.947 107.096C301.955 108.921 300.785 110.766 300.289 112.929H300.447C304.951 114.1 309.95 113.921 314.453 111.937C316.953 110.608 321.952 107.771 320.444 104.1C318.937 100.43 314.116 100.43 310.783 101.442C307.788 102.275 304.951 104.438 302.947 107.116V107.096Z" fill="var(--fill-0, white)" stroke="var(--stroke-0, #5A00CF)" stroke-width="41" stroke-linecap="round" stroke-linejoin="bevel"/>
<path id="Vector_5" d="M408.765 124.754C399.262 137.094 366.271 153.085 351.948 128.92C350.619 126.579 349.607 124.258 349.111 121.579C347.108 111.917 351.948 101.422 360.439 96.2436C364.942 93.5851 371.112 92.5732 376.111 94.4183C381.785 96.2436 385.772 102.255 384.106 108.247C382.281 113.921 376.944 117.572 371.766 119.417C366.926 121.083 361.431 121.579 356.431 120.409C356.769 122.413 357.602 124.079 358.772 125.904C370.279 144.395 395.771 131.579 404.261 119.238C406.424 116.242 412.593 119.913 408.765 124.734V124.754ZM359.288 107.096C358.296 108.921 357.126 110.766 356.63 112.929H356.789C361.292 114.1 366.291 113.921 370.794 111.937C373.294 110.608 378.293 107.771 376.785 104.1C375.278 100.43 370.457 100.43 367.124 101.442C364.129 102.275 361.292 104.438 359.288 107.116V107.096Z" fill="var(--fill-0, white)" stroke="var(--stroke-0, #5A00CF)" stroke-width="41" stroke-linecap="round" stroke-linejoin="bevel"/>
<path id="Vector_6" d="M431.461 110.61C431.453 110.602 431.459 110.589 431.47 110.589C440.277 110.943 444.436 118.255 447.111 125.924C451.277 140.586 461.117 125.25 466.116 119.099C474.29 109.775 487.621 96.1049 502.936 101.938C513.768 105.946 516.942 117.77 521.604 127.095C529.748 140.716 540.846 129.517 551.328 119.367C551.403 119.295 551.483 119.227 551.57 119.17C553.218 118.081 555.308 117.967 556.777 119.417C558.284 120.587 558.106 123.087 556.777 124.417C546.104 135.09 527.119 150.744 515.95 131.757C513.45 127.591 511.784 122.929 509.284 118.266C507.28 114.1 504.444 110.092 499.623 108.604C486.788 104.596 476.293 118.941 468.298 128.266C465.799 131.103 462.307 135.269 458.3 138.106C453.975 141.102 448.302 142.769 444.294 137.273C441.457 133.265 440.624 127.115 437.966 122.77C429.793 109.437 416.977 133.94 412.295 142.61C410.629 145.943 405.63 143.939 405.63 140.785C404.955 128.285 404.955 115.945 405.292 103.624C405.63 98.6246 413.128 98.6246 412.632 103.624C412.511 109.72 412.379 115.63 412.402 121.638C412.409 123.523 414.717 124.265 415.843 122.752C419.872 117.34 424.92 111.284 431.453 110.63C431.463 110.629 431.468 110.617 431.461 110.61Z" fill="var(--fill-0, white)" stroke="var(--stroke-0, #5A00CF)" stroke-width="41" stroke-linecap="round" stroke-linejoin="bevel"/>
<path id="Vector_7" d="M622.064 125.746C615.399 133.087 599.727 137.253 590.74 138.086C590.581 138.582 590.403 139.257 590.065 140.09C586.395 147.094 580.563 154.752 572.409 157.093C563.74 159.751 556.578 154.097 553.087 146.598C550.429 139.594 549.417 131.936 553.424 125.607C550.25 121.103 548.584 115.945 549.595 110.112C550.925 101.938 557.769 94.6168 564.93 90.9464C572.429 87.276 581.932 87.276 588.26 93.2875C594.092 99.1204 595.6 108.783 595.6 116.461C595.6 121.123 594.926 125.964 593.775 130.468C600.282 129.793 612.106 125.805 617.263 119.635C619.763 116.639 626.27 121.302 622.104 125.805L622.064 125.746ZM557.59 118.425C560.09 123.583 565.426 126.916 570.921 128.583C575.762 130.408 580.761 130.924 585.919 130.924C588.26 124.099 588.915 116.599 587.744 109.933C586.574 103.942 584.57 97.7713 578.083 95.9262C572.092 94.5969 566.081 97.93 561.915 102.096C557.908 106.422 555.091 112.592 557.59 118.425ZM582.586 138.245C574.413 137.749 565.585 135.904 558.919 130.745C556.578 135.586 558.919 142.57 561.578 146.578C563.085 148.919 565.585 150.744 568.918 150.407C574.909 149.574 579.591 143.582 582.586 138.245Z" fill="var(--fill-0, white)" stroke="var(--stroke-0, #5A00CF)" stroke-width="41" stroke-linecap="round" stroke-linejoin="bevel"/>
<path id="Vector_8" d="M695.713 124.058C695.719 124.07 695.714 124.083 695.702 124.088C686.385 127.915 677.049 132.575 668.387 137.749C668.234 137.85 668.082 137.949 667.933 138.047C665.865 139.399 665.751 142.268 667.111 144.332C669.135 147.404 670.381 151.121 670.728 155.069C671.72 163.561 667.891 171.735 662.237 177.726C656.404 184.055 647.735 189.551 639.066 188.063C629.742 186.059 626.568 175.723 628.571 167.39C630.912 158.898 637.578 151.558 644.065 145.725C646.347 143.645 645.648 139.989 642.615 139.411C639.674 138.85 636.693 138.292 633.908 137.392C627.242 135.229 620.577 131.222 618.077 124.059C614.903 115.885 619.585 106.898 624.901 100.727C629.742 95.0533 636.903 91.0654 644.065 89.2203C648.906 88.0497 650.731 95.3905 646.227 96.3825C637.895 98.2078 630.734 103.723 626.727 111.223C624.723 114.715 623.394 119.218 625.556 123.047C627.222 126.222 630.555 128.047 633.392 129.376C640.92 132.497 648.793 132.55 656.012 135.548C656.258 135.65 656.48 135.691 656.737 135.761C657.117 135.866 657.55 135.745 657.878 135.527C660.883 133.525 663.872 131.929 666.879 130.031C675.707 125.031 684.714 120.528 693.7 116.699C695.704 116.024 697.866 117.691 698.541 119.536C699.035 121.355 697.559 123.017 695.722 124.029C695.712 124.035 695.708 124.048 695.713 124.058ZM657.544 144.752C657.548 144.752 657.549 144.757 657.546 144.758C653.225 147.594 649.062 151.084 645.216 155.089C640.554 159.593 633.888 167.43 635.376 174.75C635.872 177.746 637.876 180.583 641.367 180.921C644.859 181.258 648.37 179.591 651.207 177.746C657.198 173.739 662.197 167.41 663.368 160.089C664.2 154.259 662.041 148.271 657.543 144.758C657.54 144.756 657.541 144.752 657.544 144.752Z" fill="var(--fill-0, white)" stroke="var(--stroke-0, #5A00CF)" stroke-width="41" stroke-linecap="round" stroke-linejoin="bevel"/>
<path id="Vector_9" d="M165.726 255.817C169.337 230.184 172.928 204.55 176.538 178.917C183.739 180.107 190.98 181.238 198.241 182.329C194.849 208.756 191.457 235.183 188.064 261.61C184.513 290.576 176.618 335.534 139.401 313.571C103.335 290.398 107.878 254.964 109.366 245.341C121.051 251.571 128.292 254.984 131.307 256.472C130.533 261.511 128.927 278.593 143.488 286.331C159.557 294.624 163.624 271.312 165.766 255.856L165.726 255.817Z" fill="var(--fill-0, white)" stroke="var(--stroke-0, #5A00CF)" stroke-width="63" stroke-miterlimit="10" stroke-linejoin="round"/>
<path id="Vector_10" d="M272.04 191.278C279.459 191.972 286.918 192.627 294.377 193.222C294.377 193.222 289.259 264.904 287.513 289.188C285.926 312.916 281.482 373.131 233.395 357.1C186.021 338.927 192.786 290.2 195.524 266.828C198.975 239.032 202.407 211.217 205.859 183.421C212.882 184.433 219.925 185.385 227.007 186.278C223.912 213.935 220.837 241.612 217.742 269.269C215.064 293.414 213.08 316.131 236.668 323.65C260.652 330.792 262.914 299.128 264.481 280.339C266.088 261.432 272.04 191.278 272.059 191.278H272.04Z" fill="var(--fill-0, white)" stroke="var(--stroke-0, #5A00CF)" stroke-width="63" stroke-miterlimit="10" stroke-linejoin="round"/>
<path id="Vector_11" d="M379.404 197.487C386.645 197.646 393.886 197.745 401.127 197.805C400.71 260.777 400.313 323.729 399.917 386.701C388.291 386.463 376.646 385.848 365.061 384.856C349.984 338.609 336.157 292.342 323.5 247.147C322.647 247.067 321.794 246.988 320.941 246.909C318.58 290.636 316.239 334.383 313.898 378.111C305.943 376.682 298.028 375.075 290.152 373.289C294.159 313.472 298.147 253.654 302.154 193.817C311.855 194.531 321.576 195.146 331.336 195.682C331.336 195.741 331.336 195.801 331.336 195.86C331.971 195.9 332.625 195.92 333.26 195.96C345.659 240.699 359.209 286.529 374.008 332.34C374.92 332.399 375.853 332.439 376.765 332.498C377.658 287.501 378.551 242.484 379.424 197.487H379.404Z" fill="var(--fill-0, white)" stroke="var(--stroke-0, #5A00CF)" stroke-width="63" stroke-miterlimit="10" stroke-linejoin="round"/>
<path id="Vector_12" d="M408.844 197.825C441.239 197.884 473.655 196.892 505.852 194.849C506.547 206.892 507.241 218.934 507.935 230.957C495.179 232.128 482.384 233.06 469.548 233.755C471.274 283.573 473 333.371 474.726 383.19C466.692 384.102 458.657 384.856 450.583 385.432C449.512 335.197 448.441 284.962 447.369 234.747C434.514 235.183 421.639 235.382 408.764 235.342C408.784 222.843 408.804 210.344 408.824 197.825H408.844Z" fill="var(--fill-0, white)" stroke="var(--stroke-0, #5A00CF)" stroke-width="63" stroke-miterlimit="10" stroke-linejoin="round"/>
<path id="Vector_13" d="M615.141 263.059C621.39 314.365 602.048 353.271 570.862 363.29C539.637 373.111 513.272 345.712 510.078 284.486C506.924 224.271 527.099 190.365 555.488 188.044C583.956 185.94 608.892 211.693 615.141 263.059ZM593.736 268.753C590.304 236.751 576.139 223.974 558.84 226.275C541.541 228.636 529.817 245.639 532.218 281.272C534.618 316.884 549.298 329.899 567.51 325.039C585.721 320.118 597.128 300.199 593.756 268.733L593.736 268.753Z" fill="var(--fill-0, white)" stroke="var(--stroke-0, #5A00CF)" stroke-width="63" stroke-miterlimit="10" stroke-linejoin="round"/>
<path id="Vector_14" d="M714.996 251.63C715.002 251.63 715.007 251.635 715.008 251.64C719.923 280.819 706.472 300.141 678.147 316.924C632.762 342.394 624.528 303.767 622.405 286.764C622.174 284.91 623.3 283.169 625.072 282.572C628.443 281.437 632.747 279.973 639.523 277.497C641.939 276.614 644.54 278.214 645.146 280.714C649.379 298.188 661.901 295.807 673.465 289.961C689.355 281.906 694.93 273.157 693.363 263.157C691.934 254.21 685.368 256.134 665.827 259.785C635.911 265.062 621.112 258.515 617.72 229.866C615.061 207.427 622.262 180.564 653.488 175.961C690.214 170.582 701.846 194.028 705.105 212.281C705.174 212.67 705.028 212.94 704.661 213.083C702.536 213.909 694.612 216.888 688.218 219.172C685.883 220.007 683.418 218.488 682.708 216.112C680.288 208.011 674.112 199.905 657.515 203.876C641.307 207.705 638.748 217.525 639.72 224.787C640.771 232.644 646.961 234.27 663.645 232.822C686.059 231.037 710.457 225.007 714.984 251.62C714.985 251.626 714.99 251.63 714.996 251.63Z" fill="var(--fill-0, white)" stroke="var(--stroke-0, #5A00CF)" stroke-width="63" stroke-miterlimit="10" stroke-linejoin="round"/>
<path id="Rectangle 4" d="M166.667 62L214.667 59.5L280.167 98.5L524.667 108L674.167 154.5L738.667 248H166.667L138.667 132.5L166.667 62Z" fill="var(--fill-0, #5A00CF)"/>
</g>
<g id="creemos">
<path id="Vector_15" d="M130.157 137.412C126.486 116.739 131.486 94.7559 141.821 76.2452C146.821 67.2379 153.823 58.4091 161.66 51.4056C177.828 37.5771 204.312 34.5813 214.826 57.5758C219.488 67.7339 218.833 79.9156 213.655 90.0737C211.315 94.2401 204.986 90.411 207.149 86.2446C212.148 76.9198 212.148 65.0753 205.819 56.7425C192.151 38.9064 171.658 49.9176 158.664 65.0753C152.494 72.0788 147.674 80.4116 143.666 88.9031C136.505 105.231 133.827 124.893 138.667 142.074C141.008 149.911 144.837 157.073 151.006 162.569C158.009 168.561 166.837 171.061 175.665 170.406C194.333 169.414 208.993 154.911 215.5 138.245C216.175 136.241 218 134.912 220.004 135.587C222.007 136.083 223.336 138.245 222.503 140.09C221.67 142.431 220.678 144.931 219.508 147.253C210.005 166.259 190.187 180.246 168.345 177.588C158.009 176.259 148.348 171.418 141.683 163.263C135.691 155.923 131.684 146.757 130.176 137.432L130.157 137.412Z" fill="var(--fill-0, white)"/>
<path id="Vector_16" d="M295.627 122.095C289.298 125.587 281.304 128.087 274.459 124.933C271.464 123.603 269.123 121.103 267.119 118.266C265.453 115.925 264.282 112.929 262.279 110.926C256.942 105.589 254.106 113.088 251.784 117.929C248.948 124.754 247.122 131.758 245.278 138.761C243.452 146.419 241.607 154.097 239.782 161.418C238.949 165.743 232.779 164.751 232.621 160.744C231.629 135.745 233.791 110.588 238.612 86.2446C238.949 84.2408 241.27 83.0702 242.937 83.586C245.099 84.2606 245.932 86.2446 245.436 88.2484C243.274 101.244 241.429 114.576 240.774 127.909C242.282 122.076 244.444 116.58 246.944 111.243C248.452 108.406 250.118 104.914 253.272 102.91C256.268 100.748 260.275 100.906 263.767 102.751C266.604 104.259 269.103 107.255 270.77 110.251C272.436 112.592 273.606 115.409 275.928 117.254C280.431 120.925 287.434 118.246 292.096 115.747C296.42 113.584 299.753 119.913 295.587 122.076L295.627 122.095Z" fill="var(--fill-0, white)"/>
<path id="Vector_17" d="M352.443 124.754C342.941 137.094 309.95 153.085 295.627 128.92C294.298 126.579 293.286 124.258 292.79 121.58C290.786 111.918 295.627 101.422 304.118 96.2439C308.621 93.5854 314.79 92.5735 319.79 94.4187C325.463 96.2439 329.451 102.255 327.785 108.247C325.959 113.921 320.623 117.572 315.445 119.417C310.605 121.084 305.109 121.58 300.11 120.409C300.447 122.413 301.281 124.079 302.451 125.905C313.957 144.396 339.449 131.579 347.94 119.238C350.102 116.243 356.272 119.913 352.443 124.734V124.754ZM302.947 107.096C301.955 108.922 300.785 110.767 300.289 112.929H300.447C304.951 114.1 309.95 113.921 314.453 111.937C316.953 110.608 321.952 107.771 320.444 104.101C318.937 100.43 314.116 100.43 310.783 101.442C307.788 102.275 304.951 104.438 302.947 107.116V107.096Z" fill="var(--fill-0, white)"/>
<path id="Vector_18" d="M408.764 124.754C399.262 137.094 366.271 153.085 351.947 128.92C350.618 126.579 349.607 124.258 349.111 121.58C347.107 111.918 351.947 101.422 360.438 96.2439C364.941 93.5854 371.111 92.5735 376.11 94.4187C381.784 96.2439 385.772 102.255 384.105 108.247C382.28 113.921 376.944 117.572 371.766 119.417C366.925 121.084 361.43 121.58 356.431 120.409C356.768 122.413 357.601 124.079 358.772 125.905C370.278 144.396 395.77 131.579 404.261 119.238C406.423 116.243 412.593 119.913 408.764 124.734V124.754ZM359.288 107.096C358.296 108.922 357.125 110.767 356.629 112.929H356.788C361.291 114.1 366.29 113.921 370.794 111.937C373.293 110.608 378.293 107.771 376.785 104.101C375.277 100.43 370.456 100.43 367.124 101.442C364.128 102.275 361.291 104.438 359.288 107.116V107.096Z" fill="var(--fill-0, white)"/>
<path id="Vector_19" d="M431.439 110.588C440.267 110.926 444.433 118.246 447.111 125.925C451.277 140.586 461.117 125.25 466.116 119.1C474.29 109.775 487.621 96.1051 502.936 101.938C513.767 105.946 516.942 117.77 521.604 127.095C529.777 140.765 540.926 129.436 551.44 119.258C553.107 118.088 555.269 117.929 556.777 119.417C558.284 120.588 558.106 123.087 556.777 124.417C546.104 135.091 527.119 150.744 515.95 131.758C513.45 127.591 511.784 122.929 509.284 118.266C507.28 114.1 504.444 110.092 499.623 108.604C486.788 104.597 476.293 118.941 468.298 128.266C465.799 131.103 462.307 135.269 458.3 138.106C453.975 141.102 448.301 142.769 444.294 137.273C441.457 133.265 440.624 127.115 437.966 122.77C429.792 109.438 416.977 133.94 412.295 142.61C410.629 145.943 405.63 143.939 405.63 140.785C404.955 128.286 404.955 115.945 405.292 103.624C405.63 98.6247 413.128 98.6247 412.632 103.624C412.474 111.62 412.295 119.298 412.474 127.294C416.977 121.461 422.968 111.461 431.479 110.628L431.439 110.588Z" fill="var(--fill-0, white)"/>
<path id="Vector_20" d="M622.064 125.746C615.398 133.087 599.726 137.253 590.74 138.086C590.581 138.582 590.402 139.257 590.065 140.09C586.395 147.094 580.563 154.752 572.409 157.093C563.74 159.752 556.578 154.097 553.087 146.598C550.428 139.594 549.417 131.936 553.424 125.607C550.25 121.103 548.583 115.945 549.595 110.112C550.924 101.938 557.769 94.6171 564.93 90.9467C572.429 87.2763 581.931 87.2763 588.26 93.2878C594.092 99.1207 595.6 108.783 595.6 116.461C595.6 121.123 594.926 125.964 593.775 130.468C600.282 129.793 612.105 125.806 617.263 119.635C619.763 116.639 626.27 121.302 622.104 125.806L622.064 125.746ZM557.59 118.425C560.09 123.583 565.426 126.917 570.921 128.583C575.762 130.408 580.761 130.924 585.919 130.924C588.26 124.099 588.915 116.6 587.744 109.934C586.574 103.942 584.57 97.7716 578.083 95.9265C572.092 94.5972 566.081 97.9303 561.915 102.097C557.907 106.422 555.09 112.592 557.59 118.425ZM582.586 138.245C574.413 137.749 565.585 135.904 558.919 130.746C556.578 135.587 558.919 142.57 561.577 146.578C563.085 148.919 565.585 150.744 568.918 150.407C574.909 149.574 579.591 143.582 582.586 138.245Z" fill="var(--fill-0, white)"/>
<path id="Vector_21" d="M695.723 124.079C686.399 127.909 677.056 132.571 668.386 137.749C666.879 138.741 665.549 139.574 664.062 140.745C667.89 144.237 670.231 149.415 670.727 155.069C671.719 163.561 667.89 171.735 662.236 177.727C656.404 184.056 647.735 189.551 639.065 188.063C629.741 186.06 626.567 175.723 628.571 167.39C630.912 158.899 637.578 151.558 644.065 145.725C646.068 143.9 647.893 142.55 649.897 141.062C644.898 139.555 639.065 139.059 633.907 137.392C627.242 135.23 620.576 131.222 618.077 124.06C614.903 115.886 619.584 106.898 624.901 100.728C629.742 95.0535 636.903 91.0657 644.065 89.2206C648.905 88.05 650.73 95.3908 646.227 96.3828C637.895 98.2081 630.733 103.724 626.726 111.223C624.722 114.715 623.393 119.219 625.556 123.048C627.222 126.222 630.555 128.047 633.392 129.377C641.049 132.551 649.064 132.551 656.384 135.706C656.721 135.706 656.88 135.864 657.376 135.864C660.55 133.702 663.704 132.035 666.879 130.031C675.707 125.032 684.713 120.528 693.7 116.699C695.703 116.024 697.866 117.691 698.54 119.536C699.036 121.361 697.548 123.028 695.703 124.04L695.723 124.079ZM657.555 144.753C653.23 147.59 649.064 151.082 645.215 155.089C640.553 159.593 633.888 167.43 635.376 174.751C635.872 177.747 637.875 180.584 641.367 180.921C644.858 181.258 648.37 179.592 651.206 177.747C657.198 173.739 662.197 167.41 663.367 160.089C664.2 154.256 662.038 148.264 657.535 144.753H657.555Z" fill="var(--fill-0, white)"/>
</g>
<g id="juntos">
<path id="Vector_22" d="M167.194 240.54C172.987 214.034 178.78 187.508 184.573 161.002C191.695 161.101 198.836 161.18 205.958 161.279C200.344 190.028 194.75 218.776 189.135 247.524C183.263 278.95 171.261 328.729 135.87 296.152C102.204 261.729 109.743 231.573 111.786 223.894C122.816 231.751 129.74 236.076 132.636 237.941C131.466 242.584 128.411 258.654 142.258 269.328C157.632 280.815 163.723 256.551 167.175 240.56L167.194 240.54Z" fill="var(--fill-0, #FFCF03)"/>
<path id="Vector_23" d="M277.872 161.974C285.053 162.033 292.234 162.073 299.396 162.133C299.396 162.133 290.35 250.083 287.295 279.883C284.498 308.849 276.681 383.606 227.939 359.858C180.466 332.816 191.655 279.069 196.237 253.456C201.971 222.764 207.724 192.051 213.457 161.359C220.341 161.438 227.245 161.518 234.128 161.577C228.871 193.222 223.634 224.847 218.377 256.492C213.834 284.069 210.025 310.04 233.553 320.436C257.597 330.336 261.862 291.926 264.62 269.308C267.417 246.512 277.832 161.974 277.852 161.974H277.872Z" fill="var(--fill-0, #FFCF03)"/>
<path id="Vector_24" d="M380.852 162.47C387.755 162.47 394.679 162.49 401.583 162.49C400.849 242.703 400.115 322.916 399.381 403.129C387.259 402.772 375.158 401.879 363.096 400.45C348.277 341.526 335.72 282.958 325.126 226.989C324.293 226.93 323.46 226.851 322.627 226.771C318.441 281.371 314.255 335.971 310.069 390.57C301.856 388.467 293.722 386.126 285.628 383.507C292.691 309.722 299.773 235.937 306.855 162.172C316.179 162.232 325.523 162.271 334.867 162.311C334.867 162.39 334.867 162.47 334.867 162.529C335.482 162.529 336.097 162.529 336.712 162.529C346.849 217.744 358.95 275.578 373.273 333.828C374.206 333.907 375.158 333.967 376.09 334.026C377.697 276.828 379.284 219.629 380.891 162.43L380.852 162.47Z" fill="var(--fill-0, #FFCF03)"/>
<path id="Vector_25" d="M408.962 162.49C439.89 162.49 470.818 162.41 501.726 162.252C502.956 177.231 504.186 192.21 505.416 207.189C492.977 208.022 480.499 208.677 468.021 209.173C471.115 272.125 474.21 335.078 477.305 398.03C468.973 399.379 460.601 400.47 452.229 401.304C450.305 337.498 448.361 273.673 446.437 209.868C433.919 210.165 421.381 210.304 408.863 210.284C408.903 194.353 408.942 178.421 408.982 162.49H408.962Z" fill="var(--fill-0, #FFCF03)"/>
<path id="Vector_26" d="M614.03 249.389C624.484 306.429 607.8 353.886 576.099 368.905C544.279 383.487 515.612 350.295 509.939 273.772C504.305 198.539 522.04 157.788 549.337 158.581C576.774 159.811 603.595 192.289 614.049 249.409L614.03 249.389ZM592.961 255.876C587.089 218.915 572.072 203.023 555.19 204.471C538.327 206.019 527.753 226.216 531.999 270.122C536.244 314.027 551.936 329.681 570.267 322.995C588.577 316.21 598.715 292.184 592.961 255.857V255.876Z" fill="var(--fill-0, #FFCF03)"/>
<path id="Vector_27" d="M713.002 229.132C719.965 252.702 708.777 276.351 681.956 301.072C635.455 341.347 625.199 288.374 622.659 272.344C627.103 270.439 632.558 268.177 644.422 262.503C649.322 287.124 662.97 282.899 675.012 274.169C690.228 263.078 694.95 253.277 692.589 244.111C690.426 235.779 684.058 238.794 664.796 244.111C635.177 251.849 619.703 244.369 614.01 212.348C609.586 187.21 614.327 158.184 645.275 159.117C682.332 160.803 696.001 182.052 700.385 197.071C700.405 197.11 686.598 202.348 679.476 204.789C677.274 196.297 671.243 184.492 651.682 187.429C635.733 189.889 634.027 200.166 635.614 207.943C637.3 216.335 643.668 218.319 660.312 216.792C682.709 214.966 706.634 207.645 713.022 229.152L713.002 229.132Z" fill="var(--fill-0, #FFCF03)"/>
</g>
</g>
</svg>
