<svg preserveAspectRatio="none" width="100%" height="100%" overflow="visible" style="display: block;" viewBox="0 0 1000.74 831.63" fill="none" xmlns="http://www.w3.org/2000/svg">
<path id="curl 4" d="M525.37 831.6C511.217 831.6 495.183 827.634 477.473 818.099C434.088 794.74 406.193 744.539 390.452 706.533C369.892 656.92 357.825 599.08 356.473 543.678C356.312 537.361 356.312 531.103 356.444 524.918C353.372 523.816 350.271 522.714 347.155 521.597C285.134 499.501 207.961 471.999 142.619 423.429C64.7692 365.531 18.1213 289.65 0 191.438L30.0111 138.71C95.618 387.994 237.84 428.043 361.353 472.058C364.233 455.28 368.319 439.502 373.58 425.104C388.16 385.129 411.19 355.452 442.024 336.853C495.873 304.385 556.439 302.901 622.046 332.416C675.69 356.554 725.395 397.367 769.236 433.361C786.945 447.891 803.656 461.627 818.999 472.895C846.556 493.14 858.843 492.317 859.959 491.318C867.94 484.193 868.469 437.195 839.413 386.466C750.1 230.473 716.327 119.083 739.063 55.3661C747.705 31.14 764.577 13.6278 787.842 4.72483C823.702 -9.01162 869.909 7.13422 929.108 54.0732C968.54 85.3365 999.448 119.171 1000.74 120.596L962.676 155.179L981.709 137.888L962.691 155.194C962.397 154.871 932.944 122.667 896.702 94.0044C849.025 56.3063 818.72 47.9763 806.242 52.751C796.939 56.321 791.163 62.4473 787.519 72.6578C779.612 94.8271 773.189 167.285 884.062 360.932C916.734 417.994 931.386 496.534 894.203 529.707C885.018 537.89 868.866 546.617 844.013 541.725C827.288 538.434 809.138 529.472 788.547 514.354C772.087 502.263 754.847 488.116 736.594 473.116C695.222 439.149 648.339 400.658 600.941 379.326C550.267 356.525 508.219 357.024 468.611 380.913C437.776 399.497 417.598 438.106 410.572 490.026C440.686 501.602 466.626 513.473 486.188 528.532C593.784 611.347 624.427 737.443 584.643 798.809C572.885 816.953 552.618 831.63 525.414 831.63L525.37 831.6ZM407.956 544.31C410.896 644.197 452.826 746.42 501.87 772.82C530.235 788.085 538.377 775.538 541.434 770.807C549.87 757.791 554.955 727.982 541.492 686.802C527.192 643.036 496.402 601.283 454.766 569.242C443.17 560.309 427.077 552.258 407.942 544.31H407.956Z" fill="url(#paint0_linear_0_686)"/>
<defs>
<linearGradient id="paint0_linear_0_686" x1="289.286" y1="783.47" x2="961.05" y2="-0.757335" gradientUnits="userSpaceOnUse">
<stop stop-color="#FFEC1B"/>
<stop offset="0.826923" stop-color="#FF8D42"/>
<stop offset="1" stop-color="#1994CB"/>
</linearGradient>
</defs>
</svg>
