<svg width="793" height="882" viewBox="0 0 793 882" fill="none" xmlns="http://www.w3.org/2000/svg">
<path d="M295.163 2.41487C308.896 -1.00908 325.413 -1.03928 344.904 3.92785C392.651 16.0975 431.862 58.0584 456.329 91.1281C488.282 134.293 513.983 187.496 528.697 240.924C530.382 247.015 531.896 253.088 533.264 259.121C536.511 259.447 539.787 259.766 543.08 260.095C608.604 266.531 690.139 274.546 765.29 305.865C854.834 343.211 918.454 405.553 959.796 496.463L943.433 554.885C819.467 328.878 671.782 324.425 541.289 311.598C542.553 328.574 542.406 344.872 540.784 360.115C536.309 402.43 521.142 436.796 495.723 462.303C451.328 506.834 392.92 522.926 322.122 510.159C264.232 499.716 206.13 472.14 154.884 447.821C134.185 438.008 114.648 428.722 97.0342 421.5C65.3985 408.523 53.6758 412.294 52.8338 413.533C46.8142 422.378 57.6706 468.108 98.1358 510.301C222.534 640.054 282.252 739.964 275.606 807.289C273.081 832.886 260.947 853.959 240.527 868.226C209.055 890.23 160.314 885.742 91.5181 854.519C45.6943 833.724 7.51959 808.372 5.91992 807.302L34.4877 764.537L20.2038 785.92L34.4698 764.526C34.8332 764.769 71.2017 788.891 113.302 807.934C168.682 832.979 200.102 833.73 211.054 826.078C219.217 820.364 223.34 813.022 224.406 802.233C226.715 778.809 215.417 706.95 60.99 545.878C15.4849 498.415 -17.7332 425.753 10.3201 384.57C17.2532 374.407 30.8141 362.032 56.1118 360.767C73.1362 359.914 92.9159 364.218 116.552 373.905C135.448 381.655 155.598 391.212 176.939 401.351C225.299 424.299 280.101 450.305 331.251 459.537C385.937 469.402 426.615 458.745 459.268 425.984C484.69 400.492 494.929 358.148 489.185 306.071C457.165 302.124 429.123 296.881 406.5 287.002C282.065 232.677 221.827 117.739 245.584 48.5714C252.603 28.1221 268.717 8.97822 295.113 2.397L295.163 2.41487ZM478.59 252.766C451.574 156.558 386.159 67.5153 332.185 53.7638C300.97 45.8149 296.105 59.9586 294.283 65.2882C289.247 79.959 291.524 110.113 314.549 146.812C339.012 185.819 378.989 218.882 427.14 239.9C440.552 245.762 458.115 249.68 478.605 252.763L478.59 252.766Z" fill="url(#paint0_linear_491_4993)"/>
<defs>
<linearGradient id="paint0_linear_491_4993" x1="535.878" y1="-7.99875" x2="73.7896" y2="915.449" gradientUnits="userSpaceOnUse">
<stop stop-color="#FFEC1B"/>
<stop offset="0.826923" stop-color="#FF8D42"/>
<stop offset="1" stop-color="#1994CB"/>
</linearGradient>
</defs>
</svg>
