<svg preserveAspectRatio="none" width="100%" height="100%" overflow="visible" style="display: block;" viewBox="0 0 926.638 611.607" fill="none" xmlns="http://www.w3.org/2000/svg">
<path id="curl1" opacity="0.4" d="M70.9757 2.91534C60.6343 55.1094 30.3695 101.558 18.6453 153.46C6.92113 205.362 23.0078 271.598 73.7023 287.821C107.492 298.63 144.262 283.01 172.832 261.958C197.877 243.514 221.17 209.432 203.74 183.667C185.043 156.031 140.347 169.488 117.132 193.463C59.9721 252.532 60.459 354.329 110.238 419.747C160.017 485.165 249.624 513.56 330.719 500.122C411.815 486.684 483.64 435.775 533.809 370.65C568.864 325.136 595.195 268.326 586.606 211.497C575.72 139.477 505.745 83.7382 432.945 81.3233C360.146 78.9083 290.132 124.734 255.408 188.769C220.683 252.804 219.106 331.816 242.671 400.72C270.248 481.328 332.861 550.583 412.711 580.283C478.635 604.822 554.413 601.55 617.981 571.441C681.549 541.332 732.068 484.756 754.854 418.209C766.501 384.166 767.844 339.664 738.183 319.313C715.572 303.791 683.496 310.003 661.392 326.226C618.585 357.64 607.075 422.746 632.705 469.254C658.334 515.761 715.728 540.806 768.214 532.646C820.701 524.486 891.473 493.267 912.915 444.695" stroke="url(#paint0_linear_0_1061)" stroke-width="30"/>
<defs>
<linearGradient id="paint0_linear_0_1061" x1="-850.791" y1="541.516" x2="581.279" y2="1148.41" gradientUnits="userSpaceOnUse">
<stop stop-color="white" stop-opacity="0"/>
<stop offset="0.317308" stop-color="white"/>
<stop offset="0.690513" stop-color="white"/>
<stop offset="1" stop-color="white" stop-opacity="0"/>
</linearGradient>
</defs>
</svg>
