<svg preserveAspectRatio="xMidYMid meet" width="100%" height="100%" overflow="visible" style="display: block;" viewBox="0 0 577.997 1216" fill="none" xmlns="http://www.w3.org/2000/svg">
<path id="curl2" opacity="0.4" d="M361.601 16.8135C261.029 9.91179 157.407 47.2212 91.4941 115.839C25.5813 184.456 -0.329667 282.981 26.405 370.383C53.1396 457.785 132.453 531.063 229.508 555.79C284.914 569.893 346.419 568.313 397.929 545.147C449.44 522.001 489.085 475.79 493.983 424.216C498.88 372.663 465.022 318.33 410.974 300.485C364.027 284.981 311.292 297.284 265.904 316.169C148.503 365.022 53.9187 461.826 28.4084 575.795C2.92034 689.764 53.429 817.656 160.857 882.432C268.285 947.209 427.936 936.886 515.553 851.344C559.361 808.574 581.666 737.656 539.505 693.565C499.77 652.014 426.489 656.635 368.902 674.66C265.926 706.908 175.772 771.244 117.516 854.085C65.6721 927.804 40.2731 1025.31 86.6636 1101.91C125.463 1165.96 209.496 1202.23 290.613 1199.89C371.729 1197.55 448.505 1160.6 505.424 1108.63" stroke="url(#paint0_linear_0_894)" stroke-width="32"/>
<defs>
<linearGradient id="paint0_linear_0_894" x1="-3.8803" y1="-104.561" x2="881.027" y2="772.937" gradientUnits="userSpaceOnUse">
<stop stop-color="white"/>
<stop offset="0.442708" stop-color="white"/>
<stop offset="1" stop-color="white" stop-opacity="0"/>
</linearGradient>
</defs>
</svg>
