<svg preserveAspectRatio="none" width="100%" height="100%" overflow="visible" style="display: block;" viewBox="0 0 42 42" fill="none" xmlns="http://www.w3.org/2000/svg">
<g id="Flag Pack">
<g clip-path="url(#clip0_0_671)">
<path id="Vector" d="M41.9995 12.8836H-0.000424216V0.79483C-0.000424216 0.222606 0.323845 -0.241394 0.723746 -0.241394H41.2754C41.6753 -0.241394 41.9996 0.222606 41.9996 0.79483L41.9995 12.8836Z" fill="var(--fill-0, #FFD82B)"/>
<path id="Vector_2" d="M41.2754 41.7586H0.723748C0.323845 41.7586 -0.000424216 41.2327 -0.000424216 40.5842V26.8836H41.9996V40.5842C41.9996 41.2329 41.6753 41.7586 41.2754 41.7586Z" fill="var(--fill-0, #FF4B55)"/>
<path id="Vector_3" d="M41.9996 12.8836H-0.000424216V26.8836H41.9996V12.8836Z" fill="var(--fill-0, #434AB4)"/>
<g id="Group">
<path id="Vector_4" d="M11.9033 22.6467L12.1511 23.4105L12.9343 23.4167C13.0357 23.4175 13.0779 23.5505 12.9963 23.6124L12.3662 24.0907L12.6025 24.8584C12.6331 24.9577 12.5229 25.0399 12.4404 24.9793L11.8031 24.5111L11.1658 24.9793C11.0834 25.0398 10.9732 24.9576 11.0037 24.8584L11.24 24.0907L10.6099 23.6124C10.5283 23.5506 10.5704 23.4175 10.6719 23.4167L11.4551 23.4105L11.7029 22.6467C11.7351 22.5479 11.8712 22.5479 11.9033 22.6467Z" fill="var(--fill-0, #F5F5F5)"/>
<path id="Vector_5" d="M13.4251 20.2152L13.2923 21.0087L13.9798 21.3947C14.0687 21.4447 14.0446 21.5824 13.9443 21.5972L13.169 21.7126L13.0242 22.5038C13.0054 22.6062 12.8707 22.6253 12.8258 22.5318L12.4795 21.8096L11.7025 21.9126C11.6019 21.926 11.5426 21.8 11.6154 21.7272L12.1767 21.1655L11.8412 20.438C11.7979 20.3438 11.896 20.247 11.9857 20.2956L12.6789 20.6706L13.2486 20.1179C13.3223 20.0464 13.4422 20.1125 13.4251 20.2152Z" fill="var(--fill-0, #F5F5F5)"/>
<path id="Vector_6" d="M15.3509 18.0874L14.9832 18.7983L15.5186 19.3859C15.588 19.462 15.5232 19.585 15.4233 19.5668L14.6517 19.4271L14.2733 20.1322C14.2244 20.2234 14.0905 20.1982 14.0764 20.095L13.9672 19.2977L13.1979 19.1457C13.0983 19.126 13.0804 18.9874 13.1716 18.9417L13.8756 18.5886L13.7785 17.7897C13.7658 17.6863 13.8886 17.626 13.9591 17.7009L14.5033 18.2799L15.2125 17.9381C15.3046 17.8939 15.3984 17.9953 15.3509 18.0874Z" fill="var(--fill-0, #F5F5F5)"/>
<path id="Vector_7" d="M17.6684 16.7671L17.128 17.3499L17.4896 18.0641C17.5365 18.1566 17.4418 18.2571 17.3503 18.2119L16.644 17.8636L16.0947 18.4377C16.0236 18.5121 15.9013 18.4505 15.9147 18.3472L16.0187 17.5491L15.3177 17.1896C15.2269 17.1431 15.246 17.0046 15.3457 16.9858L16.1163 16.8409L16.2323 16.0446C16.2473 15.9416 16.3814 15.9174 16.4295 16.0091L16.8017 16.7175L17.5744 16.5849C17.6747 16.568 17.7384 16.6916 17.6684 16.7671Z" fill="var(--fill-0, #F5F5F5)"/>
<path id="Vector_8" d="M20.3323 16.1553L19.6596 16.568L19.8218 17.3556C19.8429 17.4576 19.7254 17.5285 19.6491 17.4598L19.0594 16.9299L18.3806 17.3318C18.2926 17.3838 18.1909 17.291 18.2309 17.1951L18.5391 16.4548L17.9574 15.9156C17.8821 15.8458 17.9367 15.7176 18.0376 15.7271L18.8179 15.7995L19.1372 15.0643C19.1785 14.9692 19.314 14.9827 19.3365 15.0843L19.5106 15.8693L20.2896 15.9541C20.3901 15.9653 20.4194 16.1019 20.3323 16.1553Z" fill="var(--fill-0, #F5F5F5)"/>
<path id="Vector_9" d="M29.3496 22.6467L29.1018 23.4105L28.3185 23.4167C28.2171 23.4175 28.175 23.5505 28.2566 23.6124L28.8866 24.0907L28.6504 24.8584C28.6198 24.9577 28.7299 25.0399 28.8125 24.9793L29.4497 24.5111L30.087 24.9793C30.1695 25.0398 30.2796 24.9576 30.2491 24.8584L30.0128 24.0907L30.6429 23.6124C30.7245 23.5506 30.6825 23.4175 30.581 23.4167L29.7977 23.4105L29.5499 22.6467C29.5177 22.5479 29.3816 22.5479 29.3496 22.6467Z" fill="var(--fill-0, #F5F5F5)"/>
<path id="Vector_10" d="M27.8279 20.2152L27.9607 21.0087L27.2732 21.3947C27.1843 21.4447 27.2084 21.5824 27.3088 21.5972L28.084 21.7126L28.2288 22.5038C28.2476 22.6062 28.3824 22.6253 28.4272 22.5318L28.7735 21.8096L29.5505 21.9126C29.6511 21.926 29.7104 21.8 29.6377 21.7272L29.0764 21.1655L29.4118 20.438C29.4551 20.3438 29.357 20.247 29.2673 20.2956L28.5741 20.6706L28.0044 20.1179C27.9307 20.0464 27.8108 20.1125 27.8279 20.2152Z" fill="var(--fill-0, #F5F5F5)"/>
<path id="Vector_11" d="M25.9021 18.0874L26.2698 18.7983L25.7344 19.3859C25.665 19.462 25.7298 19.585 25.8297 19.5668L26.6013 19.4271L26.9797 20.1322C27.0286 20.2234 27.1625 20.1982 27.1766 20.095L27.2857 19.2977L28.0551 19.1457C28.1547 19.126 28.1726 18.9874 28.0814 18.9417L27.3774 18.5886L27.4745 17.7897C27.4872 17.6863 27.3644 17.626 27.2939 17.7009L26.7496 18.2799L26.0405 17.9381C25.9484 17.8939 25.8546 17.9953 25.9021 18.0874Z" fill="var(--fill-0, #F5F5F5)"/>
<path id="Vector_12" d="M23.5843 16.7671L24.1247 17.3499L23.7631 18.0641C23.7163 18.1566 23.8109 18.2571 23.9025 18.2119L24.6087 17.8636L25.1581 18.4377C25.2291 18.5121 25.3514 18.4505 25.3379 18.3472L25.2339 17.5491L25.9349 17.1896C26.0257 17.1431 26.0066 17.0046 25.9069 16.9858L25.1363 16.8409L25.0204 16.0446C25.0053 15.9416 24.8712 15.9174 24.8231 16.0091L24.4509 16.7175L23.6782 16.5849C23.578 16.568 23.5144 16.6916 23.5843 16.7671Z" fill="var(--fill-0, #F5F5F5)"/>
<path id="Vector_13" d="M20.9206 16.1553L21.5933 16.568L21.431 17.3556C21.41 17.4576 21.5275 17.5285 21.6038 17.4598L22.1934 16.9299L22.8723 17.3318C22.9602 17.3838 23.0619 17.291 23.0219 17.1951L22.7137 16.4548L23.2954 15.9156C23.3707 15.8458 23.3162 15.7176 23.2152 15.7271L22.435 15.7995L22.1157 15.0643C22.0743 14.9692 21.9389 14.9827 21.9164 15.0843L21.7423 15.8693L20.9633 15.9541C20.8628 15.9653 20.8334 16.1019 20.9206 16.1553Z" fill="var(--fill-0, #F5F5F5)"/>
</g>
</g>
</g>
<defs>
<clipPath id="clip0_0_671">
<rect width="42" height="42" rx="21" fill="white"/>
</clipPath>
</defs>
</svg>
