<svg preserveAspectRatio="none" width="100%" height="100%" overflow="visible" style="display: block;" viewBox="0 0 74.1866 100.464" fill="none" xmlns="http://www.w3.org/2000/svg">
<g id="smile">
<path id="Vector" d="M0 25.231C0 29.458 1.48932 33.1156 4.53367 36.2038C7.53421 39.2919 11.2356 40.847 15.616 40.847C19.9963 40.847 23.5006 39.2919 26.5669 36.2038C29.6769 33.1156 31.2319 29.458 31.2319 25.231C31.2319 21.0039 29.6769 17.1273 26.5669 14.0392C23.5006 10.951 19.8211 9.396 15.616 9.396C11.4108 9.396 7.73133 10.951 4.64318 14.0392C1.55503 17.1273 0 20.8506 0 25.231Z" fill="var(--fill-0, #FFCF03)"/>
<path id="Vector_2" d="M18.0239 47.9209C19.9075 47.9209 21.791 48.4465 23.4337 49.5416C27.5074 52.2575 28.3835 57.4482 25.3829 61.1496C24.3098 62.4637 22.4919 65.2671 22.3605 69.0342C22.2072 73.3927 24.4193 76.656 25.3829 77.8387C28.3616 81.5401 27.4855 86.7309 23.4118 89.4467C19.338 92.1625 13.6217 91.3521 10.6211 87.6507C8.03673 84.4312 3.74397 77.6854 4.0725 68.5086C4.29152 62.398 6.61311 56.3093 10.643 51.3376C12.439 49.1255 15.2205 47.9428 18.0239 47.9428V47.9209Z" fill="var(--fill-0, white)"/>
<path id="Vector_3" d="M46.7613 100.442C44.2426 100.442 41.7458 99.4123 39.9499 97.4192C36.5332 93.6521 36.8179 87.8481 40.585 84.4314C43.1694 82.088 56.0258 69.4287 55.7849 49.6952C55.5659 31.0349 44.0893 19.186 40.585 16.0103C36.8179 12.5936 36.5332 6.78964 39.9499 3.02253C43.3666 -0.744576 49.1705 -1.0293 52.9376 2.38738C57.8436 6.83344 73.8976 23.3693 74.1824 49.4981C74.489 76.4154 57.9969 93.4769 52.9376 98.0762C51.1855 99.6751 48.9734 100.464 46.7613 100.464V100.442Z" fill="var(--fill-0, #FFCF03)"/>
</g>
</svg>
