<svg preserveAspectRatio="none" width="100%" height="100%" overflow="visible" style="display: block;" viewBox="0 0 29 29" fill="none" xmlns="http://www.w3.org/2000/svg">
<g id="mail">
<mask id="mask0_0_824" style="mask-type:alpha" maskUnits="userSpaceOnUse" x="0" y="0" width="29" height="29">
<rect id="Bounding box" width="29" height="29" fill="var(--fill-0, #D9D9D9)"/>
</mask>
<g mask="url(#mask0_0_824)">
<path id="mail_2" d="M4.83366 24.1668C4.16908 24.1668 3.60015 23.9302 3.12689 23.4569C2.65362 22.9837 2.41699 22.4147 2.41699 21.7502V7.25016C2.41699 6.58558 2.65362 6.01666 3.12689 5.54339C3.60015 5.07013 4.16908 4.8335 4.83366 4.8335H24.167C24.8316 4.8335 25.4005 5.07013 25.8738 5.54339C26.347 6.01666 26.5837 6.58558 26.5837 7.25016V21.7502C26.5837 22.4147 26.347 22.9837 25.8738 23.4569C25.4005 23.9302 24.8316 24.1668 24.167 24.1668H4.83366ZM14.5003 15.7085L4.83366 9.66683V21.7502H24.167V9.66683L14.5003 15.7085ZM14.5003 13.2918L24.167 7.25016H4.83366L14.5003 13.2918ZM4.83366 9.66683V7.25016V21.7502V9.66683Z" fill="var(--fill-0, white)"/>
</g>
</g>
</svg>
