<svg preserveAspectRatio="none" width="100%" height="100%" overflow="visible" style="display: block;" viewBox="0 0 132.149 18.2189" fill="none" xmlns="http://www.w3.org/2000/svg">
<g id="agency">
<path id="Vector" d="M15.2356 16.8181C15.2356 17.1378 15.1228 17.4104 14.8973 17.636C14.6717 17.8616 14.3897 17.9744 14.0608 17.9744C13.8352 17.9744 13.619 17.9086 13.4122 17.777C13.2055 17.6454 13.0645 17.4668 12.9705 17.2412L11.7016 14.0543H3.54339L2.24634 17.2412C2.14295 17.4668 1.99257 17.6454 1.79519 17.777C1.59781 17.9086 1.38164 17.9744 1.15607 17.9744C0.827104 17.9744 0.54514 17.8616 0.328965 17.6266C0.112791 17.3916 1.7232e-06 17.119 1.7232e-06 16.7993C1.7232e-06 16.6489 0.0375963 16.4703 0.112787 16.2729L6.50404 1.01529C6.72961 0.488846 7.10557 0.216219 7.61311 0.216219C8.15825 0.216219 8.5342 0.479445 8.73158 1.01529L15.1416 16.3199C15.2168 16.5173 15.2544 16.6865 15.2544 16.8181H15.2356ZM4.3235 12.1083H10.8933L7.64131 4.01416L4.3235 12.1083Z" fill="var(--fill-0, white)"/>
<path id="Vector_2" d="M37.2948 9.10003C37.511 9.31624 37.6238 9.60767 37.6238 9.9555V15.3892C37.6238 15.7558 37.5016 16.0379 37.2572 16.2353C35.6688 17.5514 33.8078 18.2095 31.6837 18.2095C30.0577 18.2095 28.582 17.8052 27.238 17.0061C25.894 16.2071 24.8413 15.1072 24.0706 13.7064C23.2999 12.3151 22.9145 10.7734 22.9145 9.09063C22.9145 7.40787 23.2999 5.89433 24.0706 4.51241C24.8413 3.12108 25.9034 2.03058 27.238 1.21271C28.582 0.404237 30.0577 0 31.6837 0C32.8398 0 33.836 0.150413 34.6725 0.45124C35.5184 0.752068 36.3643 1.25032 37.229 1.95538C37.4076 2.08699 37.5298 2.228 37.5956 2.37841C37.652 2.51943 37.6896 2.68864 37.6896 2.88606C37.6896 3.18689 37.5768 3.44071 37.3606 3.63813C37.1444 3.83555 36.8813 3.92956 36.5805 3.92956C36.3079 3.92956 36.0542 3.83555 35.8098 3.63813C35.1895 3.11168 34.5785 2.72625 33.9958 2.49123C33.4037 2.25621 32.6424 2.14339 31.7025 2.14339C30.5182 2.14339 29.4373 2.45362 28.4411 3.07408C27.4448 3.69454 26.6647 4.54061 26.0725 5.61231C25.4898 6.68401 25.1984 7.84031 25.1984 9.10003C25.1984 10.3597 25.4898 11.5442 26.0725 12.5971C26.6553 13.6594 27.4448 14.4961 28.4411 15.126C29.4373 15.7464 30.5182 16.0567 31.7025 16.0567C32.9713 16.0567 34.1932 15.6806 35.3587 14.9192V10.8674H32.2194C31.8717 10.8674 31.5897 10.7734 31.3641 10.576C31.1479 10.3785 31.0352 10.1247 31.0352 9.82389C31.0352 9.52306 31.1479 9.26924 31.3641 9.07182C31.5803 8.87441 31.8717 8.7804 32.2194 8.7804H36.4677C36.7967 8.7804 37.0787 8.89321 37.2948 9.10943V9.10003Z" fill="var(--fill-0, white)"/>
<path id="Vector_3" d="M48.1036 17.636C47.878 17.4104 47.7652 17.1284 47.7652 16.7993V1.41013C47.7652 1.0623 47.878 0.780271 48.1036 0.55465C48.3291 0.338431 48.6111 0.225622 48.9401 0.225622H59.2131C59.5608 0.225622 59.8428 0.32903 60.0496 0.535848C60.2657 0.742667 60.3691 1.00589 60.3691 1.34432C60.3691 1.68275 60.2657 1.91777 60.0496 2.11519C59.8334 2.31261 59.5608 2.40662 59.2131 2.40662H50.1149V7.93432H56.6378C56.9667 7.93432 57.2487 8.03773 57.4649 8.24455C57.681 8.45137 57.7938 8.71459 57.7938 9.02482C57.7938 9.33505 57.681 9.60767 57.4649 9.80509C57.2487 10.0119 56.9667 10.1153 56.6378 10.1153H50.1149V15.8028H59.2131C59.5608 15.8028 59.8428 15.9062 60.0496 16.0943C60.2657 16.2917 60.3691 16.5455 60.3691 16.8651C60.3691 17.1848 60.2657 17.4668 60.0496 17.6736C59.8334 17.8804 59.5608 17.9838 59.2131 17.9838H48.9401C48.6111 17.9838 48.3291 17.871 48.1036 17.6454V17.636Z" fill="var(--fill-0, white)"/>
<path id="Vector_4" d="M70.3695 17.6454C70.1534 17.4292 70.0406 17.1378 70.0406 16.7899V1.40073C70.0406 1.0529 70.1534 0.770872 70.3695 0.545251C70.5857 0.319631 70.8677 0.216219 71.1967 0.216219C71.3658 0.216219 71.5256 0.253824 71.6948 0.338431C71.864 0.423039 71.9956 0.52645 72.1083 0.648661L82.0242 13.8381V1.40073C82.0242 1.0529 82.137 0.770872 82.3625 0.545251C82.5881 0.329032 82.8701 0.216219 83.199 0.216219C83.528 0.216219 83.81 0.329032 84.0261 0.545251C84.2423 0.761471 84.3551 1.0529 84.3551 1.40073V16.7899C84.3551 17.1378 84.2423 17.4198 84.0261 17.6454C83.81 17.8616 83.528 17.9744 83.199 17.9744C83.0299 17.9744 82.8607 17.9368 82.6915 17.871C82.5129 17.8052 82.3813 17.7018 82.2968 17.5608L72.3809 4.3714V16.7899C72.3809 17.119 72.2681 17.401 72.052 17.6266C71.8358 17.8522 71.5444 17.965 71.1967 17.965C70.8489 17.965 70.5857 17.8522 70.3695 17.636V17.6454Z" fill="var(--fill-0, white)"/>
<path id="Vector_5" d="M98.7918 17.0061C97.4478 16.2071 96.3951 15.1072 95.6244 13.7064C94.8537 12.3151 94.4683 10.7734 94.4683 9.09063C94.4683 7.40787 94.8537 5.89433 95.6244 4.51241C96.3951 3.12108 97.4572 2.03058 98.7918 1.21271C100.136 0.404237 101.611 0 103.237 0C104.394 0 105.39 0.150413 106.226 0.45124C107.072 0.752068 107.918 1.25032 108.783 1.95538C108.961 2.08699 109.084 2.228 109.149 2.37841C109.206 2.51943 109.243 2.68864 109.243 2.88606C109.243 3.18689 109.131 3.44071 108.914 3.63813C108.698 3.83555 108.444 3.92956 108.153 3.92956C107.862 3.92956 107.599 3.83555 107.354 3.63813C106.734 3.11168 106.123 2.72625 105.54 2.49123C104.948 2.25621 104.187 2.14339 103.247 2.14339C102.063 2.14339 100.982 2.45362 99.9855 3.07408C98.9892 3.69454 98.2091 4.54061 97.617 5.61231C97.0342 6.68401 96.7428 7.84031 96.7428 9.10003C96.7428 10.3597 97.0342 11.5442 97.617 12.5971C98.1997 13.6594 98.9892 14.4961 99.9855 15.126C100.982 15.7464 102.063 16.0567 103.247 16.0567C104.704 16.0567 106.095 15.5584 107.429 14.5525C107.683 14.3739 107.937 14.2799 108.181 14.2799C108.473 14.2799 108.708 14.3833 108.896 14.5901C109.084 14.7969 109.178 15.0602 109.178 15.3986C109.178 15.737 109.055 16.0002 108.811 16.2447C107.176 17.5608 105.315 18.2188 103.237 18.2188C101.611 18.2188 100.136 17.8146 98.7918 17.0155V17.0061Z" fill="var(--fill-0, white)"/>
<path id="Vector_6" d="M131.867 0.535848C132.055 0.752068 132.148 1.00589 132.148 1.30672C132.148 1.56054 132.073 1.81437 131.923 2.05879L125.804 11.4972V16.7993C125.804 17.1284 125.691 17.4104 125.466 17.636C125.24 17.8616 124.958 17.9744 124.629 17.9744C124.3 17.9744 124.037 17.8616 123.812 17.636C123.586 17.4104 123.473 17.1284 123.473 16.7993V11.4972L117.402 2.05879C117.232 1.80497 117.148 1.56054 117.148 1.33492C117.148 1.01529 117.261 0.752068 117.496 0.535848C117.731 0.319629 118.003 0.216219 118.323 0.216219C118.567 0.216219 118.764 0.272626 118.915 0.376036C119.065 0.479445 119.216 0.648659 119.366 0.87428L124.686 9.30685L130.1 0.780272C130.344 0.404238 130.692 0.216219 131.143 0.216219C131.434 0.216219 131.669 0.319629 131.857 0.535848H131.867Z" fill="var(--fill-0, white)"/>
</g>
</svg>
