<svg preserveAspectRatio="none" width="100%" height="100%" overflow="visible" style="display: block;" viewBox="0 0 206 43.1217" fill="none" xmlns="http://www.w3.org/2000/svg">
<g id="arrieta">
<path id="Vector" d="M12.9033 5.99778C13.0161 5.73456 13.2228 5.50894 13.4954 5.31152C13.7774 5.1235 14.0781 5.02949 14.3977 5.02949H20.5634C20.8547 5.02949 21.1461 5.1235 21.4187 5.31152C21.7007 5.49954 21.898 5.73456 22.0108 5.99778L34.8685 35.9395C34.9813 36.2027 34.9625 36.4847 34.8027 36.7762C34.6429 37.0676 34.3234 37.218 33.8534 37.218H26.3249C26.0053 37.218 25.7046 37.124 25.4226 36.936C25.1406 36.748 24.9339 36.5129 24.7835 36.2497L23.5992 33.6081C23.4488 33.3449 23.2421 33.1192 22.9601 32.9218C22.6781 32.7338 22.3962 32.6398 22.1048 32.6398H12.8187C12.4991 32.6398 12.1984 32.7338 11.9164 32.9218C11.6344 33.1098 11.4371 33.3355 11.3243 33.6081L10.093 36.2497C9.97082 36.5129 9.77345 36.7386 9.50088 36.936C9.21891 37.124 8.93695 37.218 8.64558 37.218H1.06067C0.910288 37.218 0.759905 37.1898 0.600124 37.1334C0.440343 37.077 0.308758 36.983 0.20537 36.8702C0.101982 36.7574 0.0361901 36.607 0.00799339 36.4283C-0.0202033 36.2497 0.0267912 36.0429 0.139578 35.8079L12.9033 5.99778ZM15.5068 25.1473H19.4261C19.7175 25.1473 19.9337 25.0533 20.0652 24.8653C20.1968 24.6773 20.1874 24.4423 20.0464 24.179C19.7551 23.4458 19.3979 22.5903 18.9938 21.6032C18.5802 20.6161 18.2043 19.7042 17.8471 18.8487C17.7343 18.5855 17.5933 18.4539 17.4523 18.4539C17.3114 18.4539 17.1704 18.5855 17.0576 18.8487L14.8583 24.179C14.7361 24.4423 14.7361 24.6679 14.8583 24.8653C14.971 25.0533 15.1966 25.1473 15.5162 25.1473H15.5068Z" fill="var(--fill-0, white)"/>
<path id="Vector_2" d="M45.3765 37.2086H38.7878C38.4965 37.2086 38.2427 37.1052 38.0359 36.8984C37.8292 36.6916 37.7258 36.4471 37.7258 36.1463V6.03538C37.7258 5.74396 37.8292 5.49013 38.0359 5.28332C38.2427 5.0765 38.4871 4.97309 38.7878 4.97309H52.482C54.1832 4.97309 55.7529 5.25511 57.1909 5.82856C58.6289 6.40202 59.8508 7.20109 60.8659 8.22578C61.8809 9.25048 62.6704 10.4726 63.2438 11.8827C63.8171 13.2928 64.0991 14.844 64.0991 16.5455C64.0991 17.4856 63.9863 18.4163 63.7701 19.3376C63.5539 20.2589 63.2344 21.1332 62.8208 21.9604C62.4073 22.7877 61.9279 23.521 61.364 24.1884C60.8095 24.8465 60.1797 25.4011 59.4748 25.843C59.2398 26.0216 59.0895 26.2284 59.0143 26.4822C58.9391 26.7361 58.9955 26.9711 59.1647 27.2061C60.2831 28.6726 61.458 30.1862 62.6892 31.7373C63.9205 33.2979 65.0202 34.7174 65.9883 36.0053C66.1668 36.2403 66.2044 36.4941 66.1198 36.7762C66.0352 37.0582 65.8379 37.1992 65.5465 37.1992H57.3601C57.0687 37.1992 56.7491 37.1146 56.4108 36.9548C56.0724 36.795 55.8186 36.5976 55.6401 36.3625C54.7096 35.131 53.7791 33.8807 52.858 32.621C51.9369 31.3613 51.0252 30.0828 50.1229 28.7948C49.9443 28.5598 49.7 28.3624 49.3804 28.2026C49.0608 28.0428 48.7507 27.9582 48.4593 27.9582H47.4912C47.1999 27.9582 46.9555 28.0616 46.7487 28.2684C46.5419 28.4752 46.4385 28.7196 46.4385 29.0205V36.1557C46.4385 36.4471 46.3352 36.701 46.1284 36.9078C45.9216 37.1146 45.6678 37.218 45.3765 37.218V37.2086ZM47.4818 19.864H52.1249C52.4726 19.864 52.8392 19.7982 53.2152 19.6666C53.5911 19.535 53.9483 19.3282 54.2678 19.0462C54.5874 18.7641 54.8506 18.4257 55.0573 18.0121C55.2641 17.5984 55.3675 17.119 55.3675 16.5549C55.3675 16.2635 55.3111 15.9157 55.2171 15.5208C55.1137 15.126 54.9352 14.7406 54.6908 14.3739C54.4464 14.0073 54.108 13.6971 53.6851 13.4527C53.2621 13.2082 52.7452 13.0766 52.1343 13.0766H47.4912C47.1999 13.0766 46.9555 13.18 46.7487 13.3868C46.5419 13.5937 46.4385 13.8381 46.4385 14.1389V18.8111C46.4385 19.1026 46.5419 19.3564 46.7487 19.5632C46.9555 19.77 47.1999 19.8734 47.4912 19.8734L47.4818 19.864Z" fill="var(--fill-0, white)"/>
<path id="Vector_3" d="M77.1541 37.2086H70.5655C70.2742 37.2086 70.0204 37.1052 69.8136 36.8984C69.6068 36.6916 69.5034 36.4471 69.5034 36.1463V6.03538C69.5034 5.74396 69.6068 5.49013 69.8136 5.28332C70.0204 5.0765 70.2648 4.97309 70.5655 4.97309H84.2597C85.9609 4.97309 87.5305 5.25511 88.9686 5.82856C90.4066 6.40202 91.6284 7.20109 92.6435 8.22578C93.6586 9.25048 94.4481 10.4726 95.0215 11.8827C95.5948 13.2928 95.8768 14.844 95.8768 16.5455C95.8768 17.4856 95.764 18.4163 95.5478 19.3376C95.3316 20.2589 95.0121 21.1332 94.5985 21.9604C94.185 22.7877 93.7056 23.521 93.1417 24.1884C92.5871 24.8465 91.9574 25.4011 91.2525 25.843C91.0175 26.0216 90.8671 26.2284 90.7919 26.4822C90.7168 26.7361 90.7732 26.9711 90.9423 27.2061C92.0608 28.6726 93.2357 30.1862 94.4669 31.7373C95.6982 33.2979 96.7978 34.7174 97.7659 36.0053C97.9445 36.2403 97.9821 36.4941 97.8975 36.7762C97.8129 37.0582 97.6156 37.1992 97.3242 37.1992H89.1377C88.8464 37.1992 88.5268 37.1146 88.1885 36.9548C87.8501 36.795 87.5963 36.5976 87.4177 36.3625C86.4873 35.131 85.5568 33.8807 84.6357 32.621C83.7146 31.3613 82.8029 30.0828 81.9006 28.7948C81.722 28.5598 81.4776 28.3624 81.1581 28.2026C80.8385 28.0428 80.5284 27.9582 80.237 27.9582H79.2689C78.9775 27.9582 78.7332 28.0616 78.5264 28.2684C78.3196 28.4752 78.2162 28.7196 78.2162 29.0205V36.1557C78.2162 36.4471 78.1128 36.701 77.9061 36.9078C77.6993 37.1146 77.4455 37.218 77.1541 37.218V37.2086ZM79.2689 19.864H83.912C84.2597 19.864 84.6263 19.7982 85.0022 19.6666C85.3782 19.535 85.7353 19.3282 86.0549 19.0462C86.3745 18.7641 86.6376 18.4257 86.8444 18.0121C87.0512 17.5984 87.1546 17.119 87.1546 16.5549C87.1546 16.2635 87.0982 15.9157 87.0042 15.5208C86.9008 15.126 86.7222 14.7406 86.4779 14.3739C86.2335 14.0073 85.8951 13.6971 85.4722 13.4527C85.0492 13.2082 84.5323 13.0766 83.9214 13.0766H79.2783C78.9869 13.0766 78.7426 13.18 78.5358 13.3868C78.329 13.5937 78.2256 13.8381 78.2256 14.1389V18.8111C78.2256 19.1026 78.329 19.3564 78.5358 19.5632C78.7426 19.77 78.9869 19.8734 79.2783 19.8734L79.2689 19.864Z" fill="var(--fill-0, white)"/>
<path id="Vector_4" d="M144.272 17.354C144.065 17.1472 143.821 17.0532 143.52 17.0532H135.004C135.211 18.3787 135.333 19.77 135.352 21.2178C135.371 22.6185 135.286 23.9534 135.108 25.2319H143.51C143.802 25.2319 144.056 25.1285 144.262 24.9217C144.469 24.7149 144.572 24.4705 144.572 24.1696V18.0967C144.572 17.8053 144.469 17.5514 144.262 17.3446L144.272 17.354ZM146.029 5.29272C145.822 5.0859 145.578 4.98249 145.277 4.98249H130.173C131.621 7.12588 133.087 9.84273 134.083 13.086H145.277C145.569 13.086 145.822 12.9826 146.029 12.7758C146.236 12.569 146.339 12.3246 146.339 12.0237V6.03538C146.339 5.74396 146.236 5.49013 146.029 5.28332V5.29272ZM146.029 29.3307C145.822 29.1239 145.578 29.0205 145.277 29.0205H134.365C133.501 32.245 132.166 34.9994 130.756 37.218H145.268C145.559 37.218 145.813 37.1146 146.02 36.9078C146.227 36.701 146.33 36.4565 146.33 36.1557V30.0828C146.33 29.7913 146.227 29.5375 146.02 29.3307H146.029Z" fill="var(--fill-0, white)"/>
<path id="Vector_5" d="M173.681 13.086H167.515C167.224 13.086 166.97 13.1894 166.763 13.3963C166.556 13.6031 166.453 13.8475 166.453 14.1483V36.1651C166.453 36.4565 166.359 36.7104 166.171 36.9172C165.983 37.124 165.72 37.2274 165.4 37.2274H158.793C158.502 37.2274 158.248 37.124 158.041 36.9172C157.834 36.7104 157.731 36.4659 157.731 36.1651V14.1389C157.731 13.8475 157.637 13.5937 157.449 13.3868C157.261 13.18 156.998 13.0766 156.678 13.0766H150.428C150.137 13.0766 149.883 12.9732 149.676 12.7664C149.469 12.5596 149.366 12.3152 149.366 12.0143V6.02598C149.366 5.73456 149.469 5.48073 149.676 5.27391C149.883 5.0671 150.127 4.96369 150.428 4.96369H173.671C173.991 4.96369 174.254 5.0671 174.442 5.27391C174.63 5.48073 174.724 5.72516 174.724 6.02598V12.0143C174.724 12.3058 174.63 12.5596 174.442 12.7664C174.254 12.9732 173.991 13.0766 173.671 13.0766L173.681 13.086Z" fill="var(--fill-0, white)"/>
<path id="Vector_6" d="M183.963 5.99778C184.076 5.73456 184.283 5.50894 184.555 5.31152C184.837 5.1235 185.138 5.02949 185.458 5.02949H191.623C191.915 5.02949 192.206 5.1235 192.479 5.31152C192.761 5.49954 192.958 5.73456 193.071 5.99778L205.928 35.9395C206.041 36.2027 206.022 36.4847 205.863 36.7762C205.703 37.0676 205.383 37.218 204.913 37.218H197.385C197.065 37.218 196.765 37.124 196.483 36.936C196.201 36.748 195.994 36.5129 195.843 36.2497L194.659 33.6081C194.509 33.3449 194.302 33.1192 194.02 32.9218C193.738 32.7338 193.456 32.6398 193.165 32.6398H183.879C183.559 32.6398 183.258 32.7338 182.976 32.9218C182.694 33.1098 182.497 33.3355 182.384 33.6081L181.153 36.2497C181.031 36.5129 180.833 36.7386 180.561 36.936C180.279 37.124 179.997 37.218 179.706 37.218H172.13C171.98 37.218 171.829 37.1898 171.669 37.1334C171.51 37.077 171.378 36.983 171.275 36.8702C171.171 36.7574 171.106 36.607 171.077 36.4283C171.049 36.2497 171.096 36.0429 171.209 35.8079L183.973 5.99778H183.963ZM186.557 25.1473H190.477C190.768 25.1473 190.984 25.0533 191.116 24.8653C191.247 24.6773 191.238 24.4423 191.097 24.179C190.806 23.4458 190.448 22.5903 190.044 21.6032C189.631 20.6161 189.255 19.7042 188.898 18.8487C188.785 18.5855 188.644 18.4539 188.503 18.4539C188.362 18.4539 188.221 18.5855 188.108 18.8487L185.909 24.179C185.787 24.4423 185.787 24.6679 185.909 24.8653C186.022 25.0533 186.247 25.1473 186.567 25.1473H186.557Z" fill="var(--fill-0, white)"/>
<g id="Group">
<path id="Vector_7" d="M99.7491 10.8298C99.7491 12.6442 100.388 14.2141 101.695 15.5396C102.982 16.8652 104.571 17.5326 106.451 17.5326C108.33 17.5326 109.834 16.8652 111.15 15.5396C112.485 14.2141 113.152 12.6442 113.152 10.8298C113.152 9.01545 112.485 7.3515 111.15 6.02598C109.834 4.70046 108.255 4.033 106.451 4.033C104.646 4.033 103.067 4.70046 101.742 6.02598C100.416 7.3515 99.7491 8.94965 99.7491 10.8298Z" fill="var(--fill-0, #FFCF03)"/>
<path id="Vector_8" d="M107.484 20.5691C108.293 20.5691 109.101 20.7947 109.806 21.2648C111.554 22.4305 111.93 24.6585 110.642 26.2472C110.182 26.8113 109.402 28.0146 109.345 29.6315C109.28 31.5023 110.229 32.903 110.642 33.4107C111.921 34.9994 111.545 37.2274 109.797 38.3931C108.048 39.5588 105.595 39.211 104.308 37.6222C103.198 36.2403 101.356 33.3449 101.497 29.4059C101.591 26.7831 102.588 24.1696 104.317 22.0356C105.088 21.0861 106.281 20.5785 107.484 20.5785V20.5691Z" fill="var(--fill-0, white)"/>
<path id="Vector_9" d="M119.816 43.1123C118.735 43.1123 117.663 42.6705 116.893 41.815C115.426 40.1981 115.549 37.7069 117.165 36.2403C118.274 35.2344 123.791 29.8007 123.688 21.3306C123.594 13.321 118.669 8.23518 117.165 6.87206C115.549 5.40553 115.426 2.9143 116.893 1.29735C118.359 -0.319593 120.85 -0.441804 122.466 1.02473C124.572 2.9331 131.461 10.0307 131.583 21.246C131.715 32.7996 124.637 40.1229 122.466 42.0971C121.714 42.7833 120.765 43.1217 119.816 43.1217V43.1123Z" fill="var(--fill-0, #FFCF03)"/>
</g>
</g>
</svg>
