<svg preserveAspectRatio="xMidYMid meet" width="100%" height="100%" overflow="visible" style="display: block;" viewBox="0 0 216.339 126" fill="none" xmlns="http://www.w3.org/2000/svg">
<g id="brand02">
<path id="Vector" d="M108.169 42.2856C167.91 42.2856 216.339 32.8196 216.339 21.1428C216.339 9.46593 167.91 0 108.169 0C48.4291 0 0 9.46593 0 21.1428C0 32.8196 48.4291 42.2856 108.169 42.2856Z" fill="var(--fill-0, #ACE9F2)"/>
<path id="Vector_2" d="M108.169 84.1427C167.91 84.1427 216.339 74.6767 216.339 62.9998C216.339 51.323 167.91 41.8571 108.169 41.8571C48.4291 41.8571 0 51.323 0 62.9998C0 74.6767 48.4291 84.1427 108.169 84.1427Z" fill="var(--fill-0, #ACE9F2)"/>
<path id="Vector_3" d="M108.169 126C167.91 126 216.339 116.534 216.339 104.857C216.339 93.1804 167.91 83.7144 108.169 83.7144C48.4291 83.7144 0 93.1804 0 104.857C0 116.534 48.4291 126 108.169 126Z" fill="var(--fill-0, #ACE9F2)"/>
</g>
</svg>
