<svg preserveAspectRatio="xMidYMid meet" width="100%" height="100%" overflow="visible" style="display: block;" viewBox="0 0 115.227 155.958" fill="none" xmlns="http://www.w3.org/2000/svg">
<g id=";)">
<path id="Vector" d="M0 39.1681C0 45.7301 2.31324 51.4081 7.04179 56.2021C11.7023 60.9961 17.4514 63.4101 24.2551 63.4101C31.0587 63.4101 36.5016 60.9961 41.2642 56.2021C46.0948 51.4081 48.5101 45.7301 48.5101 39.1681C48.5101 32.6061 46.0948 26.5881 41.2642 21.7941C36.5016 17.0001 30.7866 14.5861 24.2551 14.5861C17.7235 14.5861 12.0085 17.0001 7.21189 21.7941C2.41531 26.5881 0 32.3681 0 39.1681Z" fill="var(--fill-0, white)"/>
<path id="Vector_2" d="M27.9971 74.3921C30.9227 74.3921 33.8483 75.2081 36.3996 76.9081C42.727 81.1241 44.0878 89.1821 39.4273 94.9281C37.7604 96.9681 34.9368 101.32 34.7327 107.168C34.4946 113.934 37.9305 119 39.4273 120.836C44.0538 126.582 42.693 134.64 36.3656 138.856C30.0382 143.072 21.1595 141.814 16.499 136.068C12.4848 131.07 5.8172 120.598 6.32747 106.352C6.66765 96.8661 10.2736 87.4141 16.533 79.6961C19.3225 76.2621 23.6428 74.4261 27.9971 74.4261V74.3921Z" fill="var(--fill-0, #FFCF03)"/>
<path id="Vector_3" d="M72.6292 155.924C68.7171 155.924 64.8391 154.326 62.0496 151.232C56.7427 145.384 57.1849 136.374 63.0361 131.07C67.0502 127.432 87.019 107.78 86.6448 77.1461C86.3046 48.1781 68.479 29.7841 63.0361 24.8541C57.1849 19.5501 56.7427 10.5401 62.0496 4.69213C67.3564 -1.15587 76.3713 -1.59787 82.2224 3.70613C89.8425 10.6081 114.778 36.2781 115.22 76.8401C115.696 118.626 90.0806 145.112 82.2224 152.252C79.5009 154.734 76.0651 155.958 72.6292 155.958V155.924Z" fill="var(--fill-0, white)"/>
</g>
</svg>
