<svg preserveAspectRatio="none" width="100%" height="100%" overflow="visible" style="display: block;" viewBox="0 0 554.002 293.988" fill="none" xmlns="http://www.w3.org/2000/svg">
<g id="social media" filter="url(#filter0_dd_0_1112)">
<g clip-path="url(#clip0_0_1112)">
<path id="Vector" d="M14.0171 273.988C12.3689 128.742 128.786 9.65956 274.031 8.01729C419.277 6.36907 538.359 122.786 540.002 268.031L14.0171 273.988Z" fill="var(--fill-0, #49DBAA)"/>
<g id="Group">
<path id="Vector_2" d="M93.6373 152.263C103.366 157.91 102.194 165.562 95.7972 176.588C85.0153 195.171 74.3167 188.958 70.5205 186.757C71.5082 185.055 72.7102 182.984 75.4057 178.343C81.3262 181.777 85.1581 177.308 88.0023 172.411C91.6022 166.211 91.6082 162.765 88.5736 161.004C85.9079 159.457 83.9502 161.766 78.5296 168.502C70.2647 178.772 64.8915 182.425 57.7215 178.266C52.1877 175.053 48.0821 167.407 55.2224 155.102C63.7194 140.458 73.93 142.481 79.8981 145.944C79.8981 145.944 76.5778 151.662 74.9058 154.548C72.1865 152.971 67.474 151.787 62.9518 159.588C59.2686 165.943 60.8096 168.763 62.7018 169.858C64.7785 171.066 66.8492 169.293 71.5677 163.604C77.8988 155.982 84.7714 147.116 93.6373 152.263Z" fill="var(--fill-0, #6633CC)"/>
<path id="Vector_3" d="M122.377 106.226C133.326 116.33 132.719 128.974 124.121 138.298C115.517 147.622 103.164 149.419 92.0131 139.131C81.0706 129.034 81.6656 116.383 90.2697 107.059C98.8738 97.7352 111.435 96.1227 122.377 106.226ZM116.076 113.051C109.566 107.047 102.783 108.321 97.654 113.872C92.5308 119.424 91.6918 126.195 98.3085 132.3C104.931 138.411 111.601 137.031 116.725 131.479C121.848 125.928 122.472 118.96 116.07 113.051H116.076Z" fill="var(--fill-0, #6633CC)"/>
<path id="Vector_4" d="M162.505 84.6088L170.687 79.1108C175.62 87.9886 172.561 98.6336 162.464 105.417C152.074 112.397 139.757 111.212 131.29 98.6217C122.984 86.263 126.381 74.178 136.764 67.1924C146.862 60.4092 158.34 61.8372 164.225 69.519L156.067 74.9992C152.217 71.7146 148.207 71.6075 142.364 75.5347C136.175 79.6939 134.111 85.8703 139.133 93.3438C144.161 100.823 150.658 101.234 156.841 97.0746C162.898 93.0046 163.987 88.9823 162.487 84.6029L162.505 84.6088Z" fill="var(--fill-0, #6633CC)"/>
<path id="Vector_5" d="M187.86 90.7912L169.075 49.55L177.703 45.6169L196.488 86.8581L187.86 90.7912Z" fill="var(--fill-0, #6633CC)"/>
<path id="Vector_6" d="M247.672 71.1317L238.169 73.6367L233.778 67.0677L212.238 72.7502L211.655 80.6283L202.152 83.1333L205.687 35.3766L221.045 31.3245L247.678 71.1257L247.672 71.1317ZM228.488 59.1717L216.796 41.6958L214.487 42.3027L212.934 63.2774L228.488 59.1776V59.1717Z" fill="var(--fill-0, #6633CC)"/>
<path id="Vector_7" d="M263.072 61.7661L289.413 61.0104L289.669 69.912L253.849 70.9354L252.552 25.6302L262.03 25.3565L263.072 61.7542V61.7661Z" fill="var(--fill-0, #6633CC)"/>
<path id="Vector_8" d="M385.166 47.9497L370.01 90.6606L361.073 87.4891L372.355 55.6969L371.486 55.3875L352.368 84.401L339.527 79.8431L342.972 45.2721L342.104 44.9627L330.822 76.7549L321.885 73.5834L337.04 30.8725L350.202 35.5434L350.184 35.5851L352.35 36.3527L348.411 73.4287L349.232 73.7203L369.546 42.4517L372.313 43.4335L372.331 43.3918L385.172 47.9497H385.166Z" fill="var(--fill-0, #6633CC)"/>
<path id="Vector_9" d="M431.143 76.8322L426.228 84.2582L404.254 69.7098L399.119 77.4689L421.093 92.0173L416.178 99.4432L394.204 84.8948L389.128 92.5588L411.103 107.107L406.122 114.628L384.148 100.08L376.24 94.8437L401.255 57.0536L431.137 76.8322H431.143Z" fill="var(--fill-0, #6633CC)"/>
<path id="Vector_10" d="M456.426 132.229C450.196 138.322 437.945 145.707 425.211 132.687C423.617 131.057 413.567 120.781 412.091 119.27L444.49 87.5785L457.61 100.996C470.528 114.206 462.656 126.13 456.42 132.223L456.426 132.229ZM449.566 125.208C453.213 121.638 458.045 114.283 451.196 107.28C448.423 104.442 444.704 100.639 444.704 100.639L425.152 119.763C426.342 120.983 428.603 123.292 431.643 126.398C438.445 133.354 446.085 128.611 449.566 125.202V125.208Z" fill="var(--fill-0, #6633CC)"/>
<path id="Vector_11" d="M444.328 154.655L481.053 128.088L486.611 135.769L449.886 162.337L444.328 154.655Z" fill="var(--fill-0, #6633CC)"/>
<path id="Vector_12" d="M475.918 209.303L471.479 200.538L476.983 194.867L466.915 174.999L459.091 176.082L454.652 167.318L502.087 160.772L509.263 174.94L475.924 209.308L475.918 209.303ZM483.594 188.042L498.237 172.946L497.16 170.816L476.328 173.69L483.594 188.036V188.042Z" fill="var(--fill-0, #6633CC)"/>
</g>
<path id="bird 1" d="M293.019 87.5062L248.063 117.763C236.304 125.677 233.93 142.011 242.957 152.941C250.711 162.337 264.278 164.425 274.501 157.803L286.866 149.799C299.178 141.826 315.583 144.98 324.063 156.946C332.923 169.441 329.793 186.774 317.13 195.39C285.117 217.162 231.217 253.911 232.121 253.911" fill="var(--fill-0, #6633CC)"/>
<path id="bird 2" opacity="0" d="M258.013 127L213.058 157.257C201.301 165.171 198.927 181.504 207.953 192.435C215.706 201.83 229.273 203.919 239.495 197.296L251.86 189.293C264.171 181.32 280.576 184.473 289.055 196.439C297.915 208.935 294.785 226.268 282.123 234.884C250.111 256.656 196.213 293.405 197.118 293.405" fill="var(--fill-0, #6633CC)"/>
</g>
</g>
<defs>
<filter id="filter0_dd_0_1112" x="0" y="-6.77109e-05" width="554.002" height="293.988" filterUnits="userSpaceOnUse" color-interpolation-filters="sRGB">
<feFlood flood-opacity="0" result="BackgroundImageFix"/>
<feColorMatrix in="SourceAlpha" type="matrix" values="0 0 0 0 0 0 0 0 0 0 0 0 0 0 0 0 0 0 127 0" result="hardAlpha"/>
<feOffset dy="2"/>
<feGaussianBlur stdDeviation="1.5"/>
<feColorMatrix type="matrix" values="0 0 0 0 0 0 0 0 0 0 0 0 0 0 0 0 0 0 0.3 0"/>
<feBlend mode="normal" in2="BackgroundImageFix" result="effect1_dropShadow_0_1112"/>
<feColorMatrix in="SourceAlpha" type="matrix" values="0 0 0 0 0 0 0 0 0 0 0 0 0 0 0 0 0 0 127 0" result="hardAlpha"/>
<feMorphology radius="4" operator="dilate" in="SourceAlpha" result="effect2_dropShadow_0_1112"/>
<feOffset dy="6"/>
<feGaussianBlur stdDeviation="5"/>
<feColorMatrix type="matrix" values="0 0 0 0 0 0 0 0 0 0 0 0 0 0 0 0 0 0 0.15 0"/>
<feBlend mode="normal" in2="effect1_dropShadow_0_1112" result="effect2_dropShadow_0_1112"/>
<feBlend mode="normal" in="SourceGraphic" in2="effect2_dropShadow_0_1112" result="shape"/>
</filter>
<clipPath id="clip0_0_1112">
<rect width="526.002" height="265.988" fill="white" transform="translate(14 7.99993)"/>
</clipPath>
</defs>
</svg>
