<svg preserveAspectRatio="none" width="100%" height="100%" overflow="visible" style="display: block;" viewBox="0 0 343.626 344" fill="none" xmlns="http://www.w3.org/2000/svg">
<path id="Vector" d="M340.368 158.959L326.404 134.779L325.34 93.4898C325.132 85.3366 320.588 77.9209 313.422 74.0258L281.226 56.5301L266.639 31.262C262.286 23.7274 254.245 19.0829 245.545 19.0829H212.326L182.306 2.77068C175.141 -1.1245 166.446 -0.898519 159.494 3.35942L133.81 19.0829H98.0873C89.3871 19.0829 81.3411 23.7274 76.9939 31.262L56.8043 66.2294L32.2201 81.2809C25.2682 85.5388 21.1114 93.1805 21.3195 101.334L21.9737 126.554L3.26482 158.959C-1.08827 166.493 -1.08827 175.782 3.26482 183.317L24.3821 219.896L25.173 250.51C25.3812 258.663 29.9246 266.079 37.0905 269.974L60.7054 282.808L76.9939 311.019C81.347 318.554 89.3871 323.198 98.0873 323.198H135.023L168.207 341.229C175.372 345.124 184.067 344.899 191.019 340.641L219.51 323.193H245.539C254.24 323.193 262.286 318.548 266.633 311.013L281.524 285.222L318.287 262.713C325.239 258.455 329.396 250.814 329.182 242.66L328.194 204.381L340.362 183.311C344.715 175.776 344.715 166.487 340.362 158.953L340.368 158.959Z" fill="var(--fill-0, #FF2E2E)"/>
</svg>
