<svg preserveAspectRatio="none" width="100%" height="100%" overflow="visible" style="display: block;" viewBox="0 0 499.016 215.915" fill="none" xmlns="http://www.w3.org/2000/svg">
<path id="Vector" d="M492.503 174.759C495.225 171.371 497.025 167.182 497.441 162.522C498.089 155.165 495.135 148.354 490.06 143.737C494.357 140.034 497.293 134.721 497.833 128.6C498.458 121.54 495.777 114.955 491.059 110.367C494.963 106.7 497.608 101.655 498.119 95.8725C498.856 87.5524 494.999 79.9098 488.64 75.405C493.501 71.6848 496.859 66.0212 497.441 59.4305C498.089 52.1207 495.177 45.3338 490.161 40.74C494.41 37.0375 497.305 31.7364 497.839 25.6865C498.939 13.2242 489.739 2.21197 477.277 1.10659C469.45 0.411263 462.188 3.80467 457.606 9.49799C453.713 4.32765 447.592 0.702463 440.461 0.0903412C433.281 -0.52178 426.596 2.01585 421.871 6.51464C418.329 3.77495 413.955 1.98614 409.094 1.5523C401.445 0.898583 394.337 3.85222 389.583 8.91559C385.679 4.60103 380.14 1.66522 373.745 1.12441C366.388 0.494463 359.554 3.18066 354.811 7.88152C350.942 3.95919 345.671 1.29082 339.663 0.785667C330.98 0.0428013 323.04 3.91759 318.375 10.2587C314.476 5.37955 308.563 2.02179 301.681 1.41562C294.074 0.767837 287.02 3.67987 282.242 8.6957C278.355 4.42867 272.834 1.54042 266.511 0.999613C258.096 0.280519 250.364 3.89976 245.663 9.90212C241.925 6.53248 237.028 4.26228 231.513 3.79873C224.358 3.16878 217.672 5.72424 212.947 10.2052C209.405 7.46552 205.008 5.67075 200.17 5.24286C192.498 4.58913 185.414 7.54277 180.66 12.6061C176.755 8.29158 171.192 5.35578 164.822 4.81497C157.464 4.18502 150.606 6.86528 145.864 11.5721C142.019 7.64975 136.718 5.00514 130.715 4.47622C122.05 3.73336 114.093 7.60814 109.451 13.9552C105.529 9.09982 99.6159 5.7183 92.7518 5.13589C85.127 4.46434 78.0668 7.37637 73.3184 12.3922C69.4318 8.14895 63.9108 5.23691 57.5875 4.69611C50.5927 4.10182 44.0971 6.49682 39.3903 10.746C35.7057 7.56655 30.9751 5.44492 25.6621 4.9992C12.6828 3.87599 1.27829 13.0875 0.202616 25.5498C-0.373848 32.3426 2.2351 38.6718 6.84086 43.2538C3.05522 47.1108 0.529477 52.3524 0.0718713 58.2716C-0.474878 65.4566 2.13407 72.1008 6.66258 76.7838C3.96449 80.3555 2.1935 84.7533 1.83098 89.6205C1.24263 97.275 4.24381 104.341 9.36066 109.054C5.06987 112.982 2.1935 118.574 1.69429 124.969C1.13565 132.332 3.86346 139.149 8.6178 143.85C4.73707 147.748 2.14001 153.049 1.67052 159.058C1.11188 166.124 3.63763 172.673 8.02945 177.35C4.49341 180.934 2.12812 185.646 1.6824 190.959C0.600792 203.422 10.2818 214.434 23.2612 215.557C30.2382 216.151 36.7516 213.756 41.4584 209.507C45.143 212.687 49.8736 214.808 55.1628 215.254C62.7876 215.908 69.8478 212.996 74.6021 207.974C78.5066 212.241 84.0335 215.135 90.3568 215.694C99.0156 216.437 106.955 212.562 111.621 206.215C115.543 211.094 121.456 214.452 128.314 215.058C135.672 215.688 142.53 213.008 147.272 208.301C151.123 212.199 156.395 214.868 162.403 215.373C170.075 216.027 177.159 213.097 181.937 208.01C185.818 212.318 191.387 215.26 197.769 215.824C204.948 216.437 211.61 213.899 216.359 209.4C219.877 212.14 224.275 213.929 229.112 214.357C231.091 214.511 233.029 214.428 234.889 214.143C240.279 213.715 245.206 211.522 248.979 208.087C252.664 211.266 257.395 213.412 262.708 213.857C270.315 214.505 277.369 211.593 282.123 206.577C286.028 210.844 291.555 213.739 297.878 214.273C306.543 215.016 314.476 211.165 319.142 204.818C323.064 209.674 328.977 213.055 335.841 213.638C343.199 214.267 350.057 211.587 354.799 206.88C358.644 210.803 363.922 213.447 369.948 213.976C377.596 214.63 384.68 211.676 389.458 206.613C393.339 210.922 398.902 213.863 405.296 214.404C412.475 215.016 419.137 212.479 423.886 208.004C427.41 210.743 431.808 212.538 436.645 212.942C445.262 213.679 453.149 209.893 457.826 203.618C461.528 208.889 467.441 212.562 474.371 213.174C486.833 214.273 497.822 205.068 498.927 192.611C499.533 185.73 496.996 179.317 492.503 174.747V174.759ZM40.4184 74.5611C40.5729 74.371 40.6799 74.1749 40.8106 73.9847V74.9831C40.6858 74.8583 40.567 74.7097 40.4184 74.5611Z" fill="var(--fill-0, #FFCF03)"/>
</svg>
